<svg width="44" height="44" viewBox="0 0 44 44" fill="none" xmlns="http://www.w3.org/2000/svg">
<path d="M22 14.0938C20.4363 14.0938 18.9077 14.5574 17.6075 15.4262C16.3073 16.2949 15.294 17.5297 14.6956 18.9744C14.0972 20.4191 13.9406 22.0088 14.2457 23.5424C14.5507 25.0761 15.3037 26.4849 16.4094 27.5906C17.5151 28.6963 18.9239 29.4493 20.4576 29.7543C21.9912 30.0594 23.5809 29.9028 25.0256 29.3044C26.4703 28.706 27.7051 27.6927 28.5738 26.3925C29.4426 25.0923 29.9062 23.5637 29.9062 22C29.9062 19.9031 29.0733 17.8921 27.5906 16.4094C26.1079 14.9267 24.0969 14.0938 22 14.0938ZM22 27.8438C20.8442 27.8438 19.7144 27.501 18.7534 26.8589C17.7924 26.2168 17.0434 25.3041 16.6011 24.2363C16.1588 23.1685 16.0431 21.9935 16.2685 20.8599C16.494 19.7264 17.0506 18.6851 17.8678 17.8678C18.6851 17.0506 19.7264 16.494 20.8599 16.2685C21.9935 16.0431 23.1685 16.1588 24.2363 16.6011C25.3041 17.0434 26.2168 17.7924 26.8589 18.7534C27.501 19.7144 27.8438 20.8442 27.8438 22C27.8392 23.5485 27.2221 25.0322 26.1271 26.1271C25.0322 27.2221 23.5485 27.8392 22 27.8438ZM29.5625 5.15625H14.4375C11.976 5.15625 9.61524 6.13409 7.87467 7.87467C6.13409 9.61524 5.15625 11.976 5.15625 14.4375V29.5625C5.15625 32.024 6.13409 34.3848 7.87467 36.1253C9.61524 37.8659 11.976 38.8438 14.4375 38.8438H29.5625C32.024 38.8438 34.3848 37.8659 36.1253 36.1253C37.8659 34.3848 38.8438 32.024 38.8438 29.5625V14.4375C38.8438 11.976 37.8659 9.61524 36.1253 7.87467C34.3848 6.13409 32.024 5.15625 29.5625 5.15625ZM36.7812 29.5625C36.7812 31.477 36.0207 33.3131 34.6669 34.6669C33.3131 36.0207 31.477 36.7812 29.5625 36.7812H14.4375C12.523 36.7812 10.6869 36.0207 9.33307 34.6669C7.97929 33.3131 7.21875 31.477 7.21875 29.5625V14.4375C7.21875 12.523 7.97929 10.6869 9.33307 9.33307C10.6869 7.97929 12.523 7.21875 14.4375 7.21875H29.5625C31.477 7.21875 33.3131 7.97929 34.6669 9.33307C36.0207 10.6869 36.7812 12.523 36.7812 14.4375V29.5625ZM32.6562 13.0625C32.6562 13.4024 32.5554 13.7347 32.3666 14.0174C32.1777 14.3 31.9093 14.5203 31.5952 14.6504C31.2812 14.7805 30.9356 14.8145 30.6022 14.7482C30.2688 14.6819 29.9625 14.5182 29.7222 14.2778C29.4818 14.0375 29.3181 13.7312 29.2518 13.3978C29.1855 13.0644 29.2195 12.7188 29.3496 12.4048C29.4797 12.0907 29.7 11.8223 29.9826 11.6334C30.2653 11.4446 30.5976 11.3438 30.9375 11.3438C31.3933 11.3438 31.8305 11.5248 32.1528 11.8472C32.4752 12.1695 32.6562 12.6067 32.6562 13.0625Z" fill="black"/>
</svg>
