<?xml version="1.0" encoding="UTF-8"?><svg id="Layer_1" xmlns="http://www.w3.org/2000/svg" viewBox="0 0 527 568"><defs><style>.cls-1{font-family:MyriadPro-Regular, 'Myriad Pro';}.cls-1,.cls-2{fill:#fff;font-size:79px;}.cls-2{font-family:PulpoRust-75, 'Pulpo Rust';}</style></defs><text class="cls-2" transform="translate(121.17 117.09) rotate(-30.13)"><tspan x="0" y="0">V</tspan></text><text class="cls-2" transform="translate(164.4 91.6) rotate(-17.55)"><tspan x="0" y="0">ä</tspan></text><text class="cls-2" transform="translate(209.44 77.38) rotate(-5.89)"><tspan x="0" y="0">c</tspan></text><text class="cls-1" transform="translate(250.45 72.93) rotate(4.92)"><tspan x="0" y="0">ơ</tspan></text><text class="cls-2" transform="translate(291.4 73.68) rotate(20.31)"><tspan x="0" y="0">m</tspan></text><text class="cls-2" transform="translate(361.38 100.94) rotate(37.01)"><tspan x="0" y="0">n</tspan></text><text class="cls-2" transform="translate(402.63 131.92) rotate(50.06)"><tspan x="0" y="0">a</tspan></text><text class="cls-2" transform="translate(432.88 169.78) rotate(58.27)"><tspan x="0" y="0"> </tspan></text><text class="cls-2" transform="translate(440.54 182.12) rotate(62.14)"><tspan x="0" y="0"> </tspan></text><text class="cls-2" transform="translate(447.5 194.49) rotate(67.64)"><tspan x="0" y="0">i</tspan></text><text class="cls-2" transform="translate(458.71 218.11) rotate(78.06)"><tspan x="0" y="0">n</tspan></text><text class="cls-2" transform="translate(468.23 269.56) rotate(86.79)"><tspan x="0" y="0"> </tspan></text><text class="cls-2" transform="translate(469.11 283.93) rotate(90.93)"><tspan x="0" y="0"> </tspan></text><text class="cls-2" transform="translate(469.68 298.02) rotate(97.26)"><tspan x="0" y="0">t</tspan></text><text class="cls-2" transform="translate(464.87 334.04) rotate(105.62)"><tspan x="0" y="0">i</tspan></text><text class="cls-2" transform="translate(457.77 359.77) rotate(112.75)"><tspan x="0" y="0">l</tspan></text><text class="cls-2" transform="translate(447.58 384.34) rotate(119.84)"><tspan x="0" y="0">l</tspan></text><text class="cls-2" transform="translate(433.95 407.6) rotate(125.3)"><tspan x="0" y="0"> </tspan></text><text class="cls-2" transform="translate(427.21 419.33) rotate(133.21)"><tspan x="0" y="0">o</tspan></text><text class="cls-2" transform="translate(395.77 452.9) rotate(144.83)"><tspan x="0" y="0">s</tspan></text><text class="cls-2" transform="translate(361.35 477.45) rotate(156.04)"><tspan x="0" y="0">s</tspan></text><text class="cls-2" transform="translate(321.74 494.12) rotate(163.63)"><tspan x="0" y="0"> </tspan></text><text class="cls-2" transform="translate(307.81 498.24) rotate(167.52)"><tspan x="0" y="0"> </tspan></text><text class="cls-2" transform="translate(294.85 502.62) rotate(175.95)"><tspan x="0" y="0">p</tspan></text><text class="cls-2" transform="translate(245.7 506.33) rotate(-171.34)"><tspan x="0" y="0">å</tspan></text><text class="cls-2" transform="translate(197.97 497.92) rotate(-163.06)"><tspan x="0" y="0"> </tspan></text><text class="cls-2" transform="translate(184.06 493.71) rotate(-159.16)"><tspan x="0" y="0"> </tspan></text><text class="cls-2" transform="translate(170.78 490.57) rotate(-150.09)"><tspan x="0" y="0">C</tspan></text><text class="cls-1" transform="translate(124.21 463.3) rotate(-137.55)"><tspan x="0" y="0">ơ</tspan></text><text class="cls-2" transform="translate(92.2 437.71) rotate(-122.29)"><tspan x="0" y="0">m</tspan></text></svg>