<svg width="42" height="43" viewBox="0 0 42 43" fill="none" xmlns="http://www.w3.org/2000/svg">
<path d="M21 0C9.44999 0 0 9.69227 0 21.6295C0 32.4227 7.68599 41.381 17.724 43V27.8896H12.39V21.6295H17.724V16.8589C17.724 11.4408 20.853 8.46185 25.662 8.46185C27.951 8.46185 30.345 8.87199 30.345 8.87199V14.2038H27.699C25.095 14.2038 24.276 15.866 24.276 17.5713V21.6295H30.114L29.169 27.8896H24.276V43C29.2245 42.1967 33.7306 39.6013 36.9808 35.6824C40.231 31.7635 42.0112 26.7793 41.9999 21.6295C41.9999 9.69227 32.55 0 21 0V0Z" fill="#36405E"/>
</svg>
