<?xml version="1.0" encoding="UTF-8"?><svg width="52" height="53" id="Layer_2" xmlns="http://www.w3.org/2000/svg" viewBox="0 0 52 53"><defs><style>.cls-1,.cls-2{fill:#a23c2e;}.cls-3{fill:#36405e;}.cls-2{stroke:#36405e;stroke-miterlimit:1.35;stroke-width:.41px;}</style></defs><path class="cls-2" d="m7.83,5.62c-1.65,10.41-3.31,20.82-4.97,31.23.04.92.25,2.32,1.19,3.55,1.95,2.53,5.7,2.51,7.82,2.47,10.55-.21,19.6-8.07,23.04-11.12,6.11-5.43,8.12-9.51,9.07-12.54.66-2.1,1.65-5.61-.04-8.37-1.92-3.16-6.31-3.64-10.98-4.04-6.39-.55-14.88-1.08-25.15-1.17Z"/><path class="cls-3" d="m7.42,9.48c0,.06.63.1,3.27.06.83-3.16.95-3.86.9-3.87-.06-.02-.39.78-.62,1.44-.42,1.2-.4,1.61-.81,1.88-.2.14-.29.09-1.23.21-.19.03-1.51.2-1.51.28Z"/><g><path class="cls-3" d="m4.65,34.53s.67.82,1.79,1.23c.91.34,1.73.3,1.74.25,0-.05-.9-.08-2.02-.58-.96-.43-1.49-.93-1.51-.9Z"/><path class="cls-3" d="m4.16,32.98s.67.82,1.79,1.23c.91.34,1.73.3,1.74.25,0-.05-.9-.08-2.02-.58-.96-.43-1.49-.93-1.51-.9Z"/><path class="cls-3" d="m4.16,31.4s.67.82,1.79,1.23c.91.34,1.73.3,1.74.25,0-.05-.9-.08-2.02-.58-.96-.43-1.49-.93-1.51-.9Z"/><path class="cls-3" d="m5.95,21.54s.56.59,1.42.94c.69.29,1.3.33,1.3.3,0-.03-.67-.12-1.54-.54-.75-.36-1.17-.73-1.19-.71h0Z"/><path class="cls-3" d="m5.66,25.46s.56.59,1.42.94c.69.29,1.3.33,1.3.3s-.67-.12-1.54-.54c-.75-.36-1.17-.73-1.19-.71h0Z"/><path class="cls-3" d="m5,28.15s.51.67,1.4.97c.72.25,1.39.19,1.4.15,0-.04-.72-.03-1.61-.41-.76-.33-1.17-.73-1.19-.71h0s0,0,0,0Z"/><path class="cls-3" d="m20.85,9.71s.31-.78.11-1.7c-.16-.75-.56-1.29-.6-1.27-.04.01.35.64.48,1.59.12.82-.03,1.38,0,1.38Z"/><path class="cls-3" d="m21.75,9.77s.31-.78.11-1.7c-.16-.75-.56-1.29-.6-1.27-.04.01.35.64.48,1.59.12.82-.03,1.38,0,1.38Z"/><path class="cls-3" d="m22.66,9.84s.31-.78.11-1.7c-.16-.75-.56-1.29-.6-1.27-.04.01.35.64.48,1.59.12.82-.03,1.38,0,1.38Z"/><path class="cls-3" d="m24.03,10.19s.31-.78.11-1.7c-.16-.75-.56-1.29-.6-1.27-.04.01.35.64.48,1.59.12.82-.03,1.38,0,1.38Z"/><path class="cls-3" d="m24.93,10.26s.31-.78.11-1.7c-.16-.75-.56-1.29-.6-1.27-.04.01.35.64.48,1.59.12.82-.03,1.38,0,1.38Z"/><path class="cls-3" d="m29.87,10.31s.15-.83-.21-1.69c-.3-.7-.79-1.16-.83-1.14-.03.02.46.56.77,1.47.27.79.24,1.36.27,1.36h0Z"/><path class="cls-3" d="m29.29,10.75s.15-.83-.21-1.69c-.3-.7-.79-1.16-.83-1.14-.03.02.46.56.77,1.47.27.79.24,1.36.27,1.36h0Z"/><path class="cls-3" d="m21.66,14.39s.72-.88,1.07-2.13c.28-1.02.22-1.88.18-1.87-.04,0-.05.96-.47,2.24-.36,1.1-.81,1.76-.78,1.77h0Z"/><path class="cls-3" d="m23.47,15.32s.72-.88,1.07-2.13c.28-1.02.22-1.88.18-1.87-.04,0-.05.96-.47,2.24-.36,1.1-.81,1.76-.78,1.77h0Z"/><path class="cls-3" d="m26.6,15.62s.72-.88,1.07-2.13c.28-1.02.22-1.88.18-1.87-.04,0-.05.96-.47,2.24-.36,1.1-.81,1.76-.78,1.77h0Z"/><path class="cls-3" d="m33.34,18.92s1.02-1.56,1.72-3.61c.57-1.67.71-3,.67-2.98-.05.02-.29,1.51-1.08,3.62-.68,1.82-1.34,2.96-1.31,2.97Z"/><path class="cls-3" d="m34.52,18.52s1.02-1.56,1.72-3.61c.57-1.67.71-3,.67-2.98-.05.02-.29,1.51-1.08,3.62-.68,1.82-1.34,2.96-1.31,2.97Z"/><path class="cls-3" d="m22.68,14.9s.74-.83,1.12-2.04c.3-.99.27-1.83.23-1.83-.04,0-.07.93-.52,2.17-.39,1.06-.85,1.69-.82,1.7h0Z"/><path class="cls-3" d="m13.35,36.58c-1.96.32-3.65-1.17-3.9-1.39-1.67-1.5-1.89-3.56-1.93-4.15.55-.03,1.46-.01,2.46.37,2.72,1.02,4.59,4.09,4,4.91-.04.06-.15.18-.63.26Z"/><path class="cls-3" d="m14.42,36.24c1.97-.59,2.98-2.74,3.12-3.05.98-2.16.37-4.18.18-4.75-.53.22-1.37.65-2.17,1.45-2.15,2.18-2.71,5.9-1.83,6.4.06.04.21.1.69-.04h0Z"/><path class="cls-3" d="m13.17,35.94c-1.97-1.59-2.29-4.59-2.33-5.03-.29-2.99,1.13-5.12,1.56-5.7.5.5,1.28,1.39,1.87,2.7,1.58,3.56.82,8.21-.34,8.4-.08.01-.27.02-.75-.36Z"/><path class="cls-3" d="m32.78,25.01c-1.35,1.46-3.59,1.34-3.92,1.32-2.24-.15-3.68-1.63-4.08-2.07.41-.36,1.14-.91,2.16-1.23,2.77-.87,6.14.38,6.18,1.39,0,.07,0,.23-.33.59,0,0,0,0,0,0Z"/><path class="cls-3" d="m38.01,8.34c-.73,1.68-2.76,2.45-3.06,2.56-2.03.74-3.78.12-4.27-.07.25-.45.72-1.16,1.53-1.81,2.18-1.76,5.56-2.06,5.91-1.27.02.06.07.19-.11.6h0Z"/><path class="cls-3" d="m33.41,24.08c1.19-1.68.65-3.99.57-4.33-.56-2.3-2.29-3.52-2.79-3.85-.28.5-.68,1.36-.81,2.48-.35,3.04,1.51,6.31,2.52,6.16.07-.01.23-.05.52-.46h0s0,0,0,0Z"/><path class="cls-3" d="m32.25,24.62c-2.53-.04-4.64-2.2-4.94-2.52-2.07-2.18-2.27-4.72-2.3-5.45.71.08,1.87.3,3.14.97,3.45,1.82,5.72,5.94,4.92,6.81-.06.06-.2.18-.81.18Z"/><path class="cls-3" d="m3.63,35.57c-.08.05.21.81.56,1.44.67,1.18,1.58,1.87,2.14,2.22.24.08.61.21,1.07.32,0,0,1.21.3,2.64.32,1.38.02,5.38-.67,10.55-2.36,0,0,12.34-5.2,19.9-19.3.37-.69,1.1-2.21,1.29-4.23.1-1.08.22-2.5-.56-3.85-.92-1.6-2.62-2.21-2.62-2.2,0,.01.91.45,1.65,1.46,0,0,.61.83.88,1.95,1.06,4.36-3.67,10.88-3.67,10.88-3.35,4.61-9.15,12.61-19.95,15.96-1.81.56-9.45,2.94-12.18-.19-.68-.79-1.57-2.5-1.7-2.43Z"/><path class="cls-3" d="m3.72,38.31c.32.43.72.9,1.23,1.37.98.9,1.97,1.45,2.72,1.78.24.08.61.21,1.07.32,0,0,1.21.3,2.64.32,1.38.02,5.38-.67,10.55-2.36.76-.34,1.76-.8,2.9-1.42,0,0,11.46-6.2,17-17.88.58-1.23.91-2.31,1.06-2.83.62-2.1,1.04-3.51.57-5.17-.4-1.42-1.26-2.4-1.44-2.6-.41-.46-.82-.78-1.14-1,.47.35,1.23,1.03,1.72,2.13.24.55.36,1.09.42,1.67.26,2.57-.74,5.29-.92,5.75-1.31,3.48-2.89,5.91-3.08,6.2-1.63,2.48-4.39,6.59-9.52,10.38-3.96,2.92-7.81,4.53-10.66,5.44h0c-2.95.94-9.05,2.88-13.27-.21-.89-.65-1.48-1.37-1.86-1.9Z"/></g><path class="cls-3" d="m8.09,5.86s.53.96,1.26,1.85c.39.48.91,1.07.95,1.04.05-.04-.7-1.08-1.37-1.92-.28-.35-.8-1-.84-.97Z"/><path class="cls-1" d="m38.25,31.7c.11,1.15.17,1.73.21,2.02.18,1.33.33,2.42.75,3.76.43,1.38.72,1.66.51,2.04-.46.86-2.53.59-3.43.47-.47-.06-1.95-.29-3.74-1.13-1.21-.57-1.71-1.02-2.99-1.32-.86-.2-1.78-.26-1.81-.14-.03.13,1.09.4,2.83,1.06,3.38,1.28,3.32,1.87,4.83,1.94,1.96.1,2.94.14,3.27.06.14-.03.56-.15.9.07.31.19.25.46.49.76.5.66,1.4.27,1.88.81.08.09.22.29.12,1.65-.13,1.69-.41,2.09-.23,3.02.08.43.24,1.2.74,1.39.64.24,1.59-.53,2.04-1.3.94-1.58.39-4.19-.96-4.99-.53-.31-1.11-.3-1.51-.9-.32-.48-.18-.81-.51-1.25-.42-.55-.94-.41-1.46-.72-.43-.25-.79-.77-1.28-5.5-.07-.69-.15-1.48-.35-2.57-.17-.91-.43-2.05-.51-2.04-.06.01.03.94.21,2.81Zm3.7,9.62c.27-.23,2.54.89,2.81,2.94.16,1.24-.5,2.19-.67,2.44-.43.61-1.26,1.41-1.67,1.21-.3-.15-.24-.91-.12-2.44.12-1.49.28-1.81.14-2.6-.18-1.03-.63-1.43-.49-1.55Z"/></svg>