<?xml version="1.0" encoding="UTF-8"?><svg  width="52" height="53" id="Layer_39" xmlns="http://www.w3.org/2000/svg" viewBox="0 0 405 407"><defs><style>.cls-1{fill:#edb140;}.cls-2{fill:#b17440;}.cls-3{fill:#fcec8f;stroke:#b17440;stroke-miterlimit:10;stroke-width:3px;}</style></defs><path class="cls-3" d="m110.27,31.54c-18.62,75.67-37.24,151.35-55.85,227.02-.28,6.78.39,17.28,6.56,26.87,12.81,19.88,40.43,22.03,56.1,23.03,77.82,4.96,149.41-47.35,176.62-67.72,48.36-36.2,65.72-65.08,74.6-86.78,6.16-15.07,15.59-40.29,4.91-61.72-12.19-24.44-44.25-30.73-78.38-36.56-46.74-8-109-17.15-184.55-24.14Z"/><path class="cls-1" d="m68.98,242.56c-.21.24,4.45,6.42,12.42,10.14,6.47,3.03,12.59,3.26,12.66,2.94.08-.34-6.56-1.14-14.52-5.5-6.84-3.75-10.38-7.78-10.56-7.58Z"/><path class="cls-1" d="m66.33,230.81c-.21.24,4.45,6.42,12.42,10.14,6.47,3.03,12.59,3.26,12.66,2.94.08-.34-6.56-1.14-14.52-5.5-6.84-3.75-10.38-7.78-10.56-7.58Z"/><path class="cls-1" d="m67.29,219.19c-.21.24,4.45,6.42,12.42,10.14,6.47,3.03,12.59,3.26,12.66,2.94.08-.34-6.56-1.14-14.52-5.5-6.84-3.75-10.38-7.78-10.56-7.58Z"/><path class="cls-1" d="m86.62,147.66c-.13.14,3.77,4.66,9.86,7.82,4.94,2.57,9.4,3.24,9.43,3.04.03-.22-4.85-1.32-10.99-4.9-5.28-3.08-8.19-6.07-8.3-5.96Z"/><path class="cls-1" d="m82.03,176.36c-.13.14,3.77,4.66,9.86,7.82,4.94,2.57,9.4,3.24,9.43,3.04.03-.22-4.85-1.32-10.99-4.9-5.28-3.08-8.19-6.07-8.3-5.96Z"/><path class="cls-1" d="m75.48,195.77c-.18.21,3.36,5.23,9.7,8.04,5.15,2.28,10.13,2.22,10.21,1.95.08-.29-5.3-.69-11.61-4.03-5.42-2.87-8.15-6.13-8.3-5.96Z"/><path class="cls-1" d="m203.67,69.65c.27.05,2.74-5.58,1.87-12.46-.71-5.59-3.33-9.82-3.61-9.74-.29.08,2.15,4.9,2.55,12.02.34,6.13-1.04,10.14-.81,10.18Z"/><path class="cls-1" d="m210.3,70.71c.27.05,2.74-5.58,1.87-12.46-.71-5.59-3.33-9.82-3.61-9.74-.29.08,2.15,4.9,2.55,12.02.34,6.13-1.04,10.14-.81,10.18Z"/><path class="cls-1" d="m216.92,71.77c.27.05,2.74-5.58,1.87-12.46-.71-5.59-3.33-9.82-3.61-9.74-.29.08,2.15,4.9,2.55,12.02.34,6.13-1.04,10.14-.81,10.18Z"/><path class="cls-1" d="m226.8,75.16c.27.05,2.74-5.58,1.87-12.46-.71-5.59-3.33-9.82-3.61-9.74-.29.08,2.15,4.9,2.55,12.02.34,6.13-1.04,10.14-.81,10.18Z"/><path class="cls-1" d="m233.42,76.23c.27.05,2.74-5.58,1.87-12.46-.71-5.59-3.33-9.82-3.61-9.74-.29.08,2.15,4.9,2.55,12.02.34,6.13-1.04,10.14-.81,10.18Z"/><path class="cls-1" d="m269.79,79.67c.28,0,1.63-6-.52-12.59-1.75-5.35-5.13-9.02-5.38-8.89-.27.13,3.04,4.4,4.77,11.33,1.49,5.95.89,10.15,1.13,10.15Z"/><path class="cls-1" d="m265.25,82.57c.28,0,1.63-6-.52-12.59-1.75-5.35-5.13-9.02-5.38-8.89-.27.13,3.04,4.4,4.77,11.33,1.49,5.95.89,10.15,1.13,10.15Z"/><path class="cls-1" d="m206.73,104.7c.22.16,5.88-6.03,9.19-15.06,2.69-7.34,2.78-13.69,2.48-13.7-.32,0-.93,7.01-4.83,16.18-3.35,7.89-7.03,12.44-6.85,12.58Z"/><path class="cls-1" d="m219.49,112.63c.22.16,5.88-6.03,9.19-15.06,2.69-7.34,2.78-13.69,2.48-13.7-.32,0-.93,7.01-4.83,16.18-3.35,7.89-7.03,12.44-6.85,12.58Z"/><path class="cls-1" d="m242.39,116.75c.22.16,5.88-6.03,9.19-15.06,2.69-7.34,2.78-13.69,2.48-13.7-.32,0-.93,7.01-4.83,16.18-3.35,7.89-7.03,12.44-6.85,12.58Z"/><path class="cls-1" d="m290,145.24c.21.19,8.51-10.85,14.91-25.56,5.19-11.94,7.11-21.65,6.77-21.57-.36.08-3.07,10.94-10.19,26.02-6.11,12.96-11.67,20.95-11.49,21.11Z"/><path class="cls-1" d="m298.96,143.05c.21.19,8.51-10.85,14.91-25.56,5.19-11.94,7.11-21.65,6.77-21.57-.36.08-3.07,10.94-10.19,26.02-6.11,12.96-11.67,20.95-11.49,21.11Z"/><path class="cls-1" d="m213.93,109.07c.22.17,5.99-5.65,9.49-14.37,2.84-7.08,3.09-13.31,2.79-13.33-.31-.02-1.09,6.84-5.18,15.66-3.51,7.59-7.28,11.89-7.1,12.04Z"/><path class="cls-1" d="m131.82,263.04c-14.65,1.13-26.2-10.84-27.87-12.62-11.35-12.09-11.72-27.4-11.67-31.76,4.06.13,10.73.83,17.89,4.23,19.4,9.21,31.3,32.96,26.42,38.65-.34.4-1.21,1.23-4.77,1.5Z"/><path class="cls-1" d="m139.94,261.22c14.87-3.11,23.62-18.33,24.87-20.58,8.52-15.28,5.34-30.59,4.28-34.91-4.02,1.3-10.51,3.92-16.86,9.36-17.22,14.74-23.58,41.77-17.4,46.01.44.3,1.49.87,5.1.11Z"/><path class="cls-1" d="m130.91,258.24c-13.52-12.94-14.05-35.26-14.09-38.53-.26-22.24,11.49-37.01,14.98-41.07,3.4,4,8.6,11.04,12.1,21.08,9.48,27.21,1.01,60.96-7.69,61.66-.61.05-2.01,0-5.3-3.15Z"/><path class="cls-1" d="m282.11,189.77c-10.83,9.93-27.3,7.65-29.71,7.29-16.39-2.5-26.13-14.31-28.79-17.78,3.27-2.41,8.95-5.98,16.68-7.73,20.94-4.74,44.97,6.6,44.65,14.09-.02.53-.2,1.71-2.83,4.13Z"/><path class="cls-1" d="m330.99,70.16c-6.43,11.92-21.85,16.33-24.12,16.95-15.42,4.2-27.92-1.45-31.41-3.18,2.14-3.13,6.04-8.09,12.36-12.39,17.13-11.64,42.21-11.74,44.35-5.71.15.43.38,1.43-1.18,4.32Z"/><path class="cls-1" d="m287.37,183.32c9.77-11.63,7.26-29,6.86-31.54-2.74-17.28-14.69-27.36-18.19-30.11-2.36,3.5-5.85,9.58-7.48,17.78-4.44,22.23,7.25,47.42,14.73,46.94.53-.03,1.71-.24,4.08-3.06Z"/><path class="cls-1" d="m278.43,186.55c-18.63-1.83-32.83-19.05-34.87-21.6-13.93-17.33-13.81-36.2-13.58-41.55,5.14,1.05,13.59,3.37,22.54,9.11,24.26,15.55,38.44,47.33,32.03,53.25-.45.42-1.59,1.24-6.11.8Z"/><path class="cls-2" d="m104.86,59.66c-.01.41,4.55,1.13,24.06,2.5,8.06-22.74,9.41-27.84,9.02-28-.43-.17-3.36,5.48-5.49,10.22-3.85,8.58-3.91,11.6-7.12,13.35-1.58.86-2.16.45-9.19.79-1.44.07-11.26.54-11.28,1.14Z"/><path class="cls-1" d="m60.83,249.63c-.65.28,1.01,6.12,3.23,10.93,4.19,9.07,10.46,14.72,14.37,17.7,1.69.77,4.34,1.91,7.67,3.04,0,0,8.75,2.96,19.29,4,10.19,1,40.03-1.62,79.19-10.86,0,0,94.11-30.72,158.51-129.95,3.13-4.83,9.45-15.58,12.1-30.34,1.42-7.88,3.16-18.32-1.74-28.69-5.83-12.34-17.9-17.91-17.98-17.83-.06.07,6.4,3.85,11.25,11.77,0,0,4,6.53,5.31,14.89,5.14,32.79-33.77,77.93-33.77,77.93-27.5,31.9-75.22,87.26-156.83,105.31-13.66,3.02-71.46,15.81-89.61-8.92-4.56-6.22-10-19.41-11-18.97Z"/><path class="cls-1" d="m59.85,269.85c2.08,3.33,4.76,7.06,8.23,10.83,6.64,7.23,13.59,11.88,18.91,14.81,1.69.77,4.34,1.91,7.67,3.04,0,0,8.75,2.96,19.29,4,10.19,1,40.03-1.62,79.19-10.86,5.84-2.01,13.47-4.84,22.22-8.67,0,0,88.24-38.58,136.29-121.28,5.05-8.69,8.12-16.47,9.58-20.21,5.89-15.09,9.84-25.19,7.41-37.76-2.06-10.69-7.82-18.44-9.02-20.02-2.77-3.63-5.6-6.26-7.77-8.04,3.22,2.87,8.46,8.36,11.35,16.77,1.45,4.22,1.99,8.24,2.06,12.56.31,19.07-8.75,38.51-10.33,41.83-11.79,24.81-24.94,41.78-26.49,43.76-13.55,17.29-36.38,45.87-76.54,70.62-30.96,19.08-60.35,28.57-81.91,33.52h0c-22.33,5.1-68.47,15.65-97.63-9.76-6.13-5.34-10.09-11.04-12.52-15.14Z"/><path class="cls-2" d="m112.01,33.41c-.35.21,3.35,7.41,8.1,14.43,2.54,3.75,6.07,8.47,6.37,8.27.38-.25-4.5-8.39-8.92-15.02-1.81-2.72-5.25-7.87-5.56-7.69Z"/><path class="cls-2" d="m318.33,242.43c.13,8.58.2,12.86.31,15,.52,9.93.95,18.05,3.19,28.14,2.32,10.45,4.29,12.66,2.52,15.35-3.96,6.04-18.97,2.77-25.58,1.34-3.43-.75-14.22-3.34-26.83-10.64-8.56-4.96-11.94-8.59-21.25-11.56-6.2-1.97-12.97-2.99-13.25-2.12-.31.98,7.79,3.63,20.21,9.58,24.08,11.54,23.33,15.81,34.37,17.28,14.39,1.92,21.59,2.88,24.06,2.5,1.05-.16,4.23-.72,6.62,1.06,2.14,1.6,1.59,3.54,3.13,5.94,3.31,5.18,10.17,2.85,13.35,7.12.53.71,1.46,2.29-.14,12.21-2,12.37-4.3,15.16-3.54,22.08.35,3.2.99,8.99,4.63,10.71,4.56,2.14,12.01-2.96,15.83-8.33,7.88-11.09,5.45-30.67-3.98-37.32-3.69-2.61-7.97-2.89-10.56-7.58-2.05-3.71-.79-6.1-3-9.54-2.76-4.28-6.7-3.63-10.33-6.18-3.02-2.12-5.37-6.13-6.07-41.28-.1-5.13-.17-10.98-1-19.18-.69-6.79-1.93-15.4-2.52-15.35-.48.04-.38,6.96-.16,20.81Zm21.34,73.17c2.15-1.56,18.2,8.12,18.89,23.41.42,9.27-5.02,15.83-6.43,17.54-3.52,4.24-10.17,9.62-13.04,7.88-2.11-1.29-1.23-6.88.62-18.02,1.81-10.88,3.16-13.2,2.6-19.06-.73-7.69-3.73-10.96-2.65-11.75Z"/></svg>