<svg width="41" height="42" viewBox="0 0 41 42" fill="none" xmlns="http://www.w3.org/2000/svg">
<path d="M20.5 11.1429C18.5969 11.1429 16.7365 11.721 15.1541 12.8041C13.5717 13.8872 12.3383 15.4267 11.61 17.2278C10.8817 19.029 10.6912 21.0109 11.0624 22.923C11.4337 24.8351 12.3502 26.5915 13.6959 27.9701C15.0416 29.3486 16.7562 30.2874 18.6228 30.6677C20.4893 31.0481 22.4241 30.8529 24.1824 30.1068C25.9406 29.3607 27.4434 28.0973 28.5008 26.4763C29.5581 24.8553 30.1224 22.9496 30.1224 21C30.1224 18.3857 29.1087 15.8785 27.3041 14.0299C25.4995 12.1814 23.052 11.1429 20.5 11.1429V11.1429ZM20.5 28.2857C19.0933 28.2857 17.7183 27.8584 16.5486 27.0579C15.379 26.2573 14.4675 25.1194 13.9291 23.7881C13.3908 22.4568 13.25 20.9919 13.5244 19.5786C13.7988 18.1653 14.4762 16.8671 15.4709 15.8482C16.4655 14.8293 17.7328 14.1354 19.1125 13.8543C20.4921 13.5732 21.9221 13.7174 23.2217 14.2689C24.5213 14.8203 25.6321 15.7541 26.4136 16.9523C27.1951 18.1504 27.6122 19.559 27.6122 21C27.6067 22.9306 26.8556 24.7804 25.523 26.1455C24.1904 27.5106 22.3846 28.2801 20.5 28.2857ZM29.7041 0H11.2959C8.30005 0 5.42689 1.21913 3.3085 3.38919C1.1901 5.55926 0 8.50249 0 11.5714V30.4286C0 33.4975 1.1901 36.4407 3.3085 38.6108C5.42689 40.7809 8.30005 42 11.2959 42H29.7041C32.6999 42 35.5731 40.7809 37.6915 38.6108C39.8099 36.4407 41 33.4975 41 30.4286V11.5714C41 8.50249 39.8099 5.55926 37.6915 3.38919C35.5731 1.21913 32.6999 0 29.7041 0V0ZM38.4898 30.4286C38.4898 32.8155 37.5642 35.1047 35.9165 36.7925C34.2689 38.4804 32.0342 39.4286 29.7041 39.4286H11.2959C8.9658 39.4286 6.73112 38.4804 5.08348 36.7925C3.43584 35.1047 2.5102 32.8155 2.5102 30.4286V11.5714C2.5102 9.18448 3.43584 6.89529 5.08348 5.20747C6.73112 3.51964 8.9658 2.57143 11.2959 2.57143H29.7041C32.0342 2.57143 34.2689 3.51964 35.9165 5.20747C37.5642 6.89529 38.4898 9.18448 38.4898 11.5714V30.4286ZM33.4694 9.85714C33.4694 10.281 33.3467 10.6953 33.1169 11.0477C32.887 11.4 32.5603 11.6747 32.1781 11.8369C31.7958 11.9991 31.3752 12.0415 30.9695 11.9588C30.5637 11.8761 30.1909 11.6721 29.8984 11.3724C29.6058 11.0727 29.4066 10.6909 29.3259 10.2752C29.2452 9.85952 29.2866 9.42866 29.4449 9.03711C29.6033 8.64555 29.8714 8.31088 30.2154 8.07542C30.5594 7.83996 30.9638 7.71429 31.3776 7.71429C31.9323 7.71429 32.4644 7.94005 32.8567 8.34191C33.249 8.74378 33.4694 9.28882 33.4694 9.85714Z" fill="#36405E"/>
</svg>
