<?xml version="1.0" encoding="UTF-8"?><svg id="copy_K" xmlns="http://www.w3.org/2000/svg" viewBox="0 0 260 399"><defs><style>.cls-1{fill:#fff;}.cls-2{fill:#e4e4e4;}.cls-3{fill:#979797;}.cls-4{fill:#b1b1b1;}.cls-5{fill:#c5b097;}.cls-6{fill:gray;}.cls-7{fill:#754c24;}</style></defs><path class="cls-2" d="m148.69,384.48c-9.58,4-23.05,8.09-39.4,8.52-7.98.21-31.91.52-56.32-14.2-9.21-5.55-15.87-11.67-20.23-16.24,1.71-58.45,3.42-116.89,5.12-175.34,5.43,4.79,13.16,10.9,23.18,16.82,28.68,16.95,56.54,20.65,72.22,21.42,31.03,1.52,55.36-6.45,68.62-11.91-17.72,56.97-35.46,113.96-53.18,170.93Z"/><path class="cls-2" d="m47.48,195.24c-3.64,26.42-6.29,55.64-7.07,87.29-.51,20.51-.19,39.96.71,58.25,4.78,5.23,12.88,12.9,24.75,19.17,6.13,3.24,25.4,13.08,51.01,10.09,14.81-1.73,26.35-7.12,33.9-11.64l43.24-141.29c-6.48,2.55-14.09,4.97-22.74,6.72-47.32,9.53-87.46-9.15-101.82-16.06-8.97-4.32-16.34-8.77-21.99-12.51h0Z"/><path class="cls-7" d="m58.29,202.47c-1.65.5-4.28,1.54-6.86,3.74-3.85,3.3-5.33,7.26-5.86,9.03-1.84,13.85-3.32,28.72-4.22,44.53-1.07,18.69-1.18,36.2-.67,52.36,9.72,5.93,22.05,12.16,36.91,16.98,33.15,10.77,62.46,9.21,80.23,6.7,11.03-36.04,22.08-72.09,33.11-108.13-.44-.89-1.89-3.58-5.11-5.09-2.03-.94-3.88-1.01-4.9-.97-9.38,2.42-20.31,4.31-32.55,4.78-41.25,1.57-73.4-14.04-90.07-23.93h0Z"/><path class="cls-5" d="m40.67,312.14c.15,9.54.3,19.09.45,28.63,5.83,6.19,20.39,19.95,43.79,25.99,23.8,6.15,43.14.8,48.05-.69,7.63-2.3,13.66-5.3,17.83-7.69,2.6-7.98,5.2-15.97,7.79-23.94-7.37.74-18,1.47-30.79,1.05-12.78-.42-32.16-1.19-55.32-8.91-8.01-2.67-19.2-7.08-31.8-14.45Z"/><path class="cls-1" d="m48.52,220.93c.28-.14,1.57,3.86,5.51,8.23,5.54,6.14,11.79,7.98,11.59,8.41-.2.42-6.37-.64-11.19-5.27-4.97-4.77-6.26-11.19-5.91-11.36Z"/><path class="cls-1" d="m108.4,253.16c-5.74-.04-14.2-.86-23.54-4.66-4.83-1.96-8.82-4.28-11.98-6.45-.11,1.86-.23,3.73-.34,5.6-4.41,71.86-5.15,84.01-5.16,84.04h0c.87.19,2.24.36,3.14-.4,1.19-1.02.88-3.15.78-3.92-.63-5.01,1.13-10.06.95-15.1-.21-5.43.55-22.47,3.59-64.53,4.52,2.33,10.6,4.91,18.06,6.63,5.63,1.3,10.7,1.8,14.91,1.93-.13-1.05-.27-2.09-.4-3.14h0Z"/><path class="cls-1" d="m112.92,256.09c-.15.99-.41,2.53-.71,4.42-2.63,16.21-4.77,28.15-5.29,31.09-1.52,8.55-3.86,22.79-7.35,47.48.85.85,1.7,1.69,2.55,2.54,2.15-16.25,4.78-33.07,7.93-50.42,1.96-10.73,4.03-21.2,6.21-31.39,3.44,1.34,8.88,2.99,15.7,3.1,11.84.2,21.53-4.31,21.37-4.95-.11-.45-5.19,1.07-12.55,1.6-11.66.83-21.34-1.38-27.86-3.47Z"/><path class="cls-1" d="m158.81,256l-.28,1.05c-11.53,43.04-22.62,84.42-23.07,86.08,1.11-.46,2.22-.92,3.33-1.38l22.77-84.18c5.75-3.28,11.49-6.56,17.24-9.84l-19.99,8.28h0Z"/><path class="cls-6" d="m56.56,128.74c-10.97,2.57-18.54,6.88-23.32,9.66-8.62,5-15.48,9.11-17.61,16.9-1.87,6.83.84,13.03,1.99,15.69,3.56,8.18,9.83,12.61,15.14,16.25,17.96,12.34,26.94,18.52,34.37,22.09,14.44,6.96,30.98,14.9,54.56,17.93,29.51,3.78,51.96-2.48,65.49-6.41,17.67-5.13,36.33-10.83,44.07-26.96,1.28-2.66,3.81-8.12,2.91-14.71-1.79-13.12-15.87-21.55-30.07-28.37-61.47-29.54-122.96-27.81-147.53-22.05Z"/><path class="cls-4" d="m55.08,74.42c-1.42-.03-5.54.07-9.22.22-10.85.45-12.02,1.18-12.55,1.6-5.48,4.29.04,19.47.83,21.57,8.24,1.29,16.48,2.58,24.72,3.87l1.29,55.3c6.94,7.58,16.51,15.84,29.27,22.1,46.69,22.88,95.92-.9,103.93-4.93,5.92-14.46,11.84-28.92,17.76-43.38,7.78,1.88,15.57,3.76,23.35,5.64.85-.46,8.93-5.06,9.97-14.34.65-5.83-1.83-10.27-2.77-11.76-6.93-2.73-13.87-5.47-20.81-8.19,1.04-3.54,2.08-7.06,3.12-10.6-92.92-10.09-160.79-16.94-168.89-17.1Z"/><path class="cls-6" d="m111.22,7.03c-8.52,1.69-23.61,4.88-37.03,17.14-4.95,4.53-12.87,11.95-16.03,24.35-4.82,18.95,5.3,34.6,6.94,37.05,7.71,11.52,18.14,15.73,33.39,21.89,10.96,4.43,30.32,12.01,55.13,9.89,18.05-1.55,33.5-7.76,48.61-13.83,10.6-4.25,12.74-6.04,22.14-8.87,17.84-5.37,29.55-4.8,30.38-9.28.49-2.67-3.19-5.44-9.24-9.98-8.46-6.35-12.55-6.27-18.07-11.73-3.84-3.81-5.28-7.24-7.08-10.58-6.16-11.41-14.9-18.52-24.37-26.23C177.33,11.68,144.21.48,111.22,7.03Z"/><path class="cls-6" d="m216.93,101.34c-.3-.28-3.73,2.16-6.26,5.9-2.75,4.05-3.34,7.99-3.6,9.81-.93,6.59.89,12.21,1.29,12.16.49-.06-2.18-8.27,1.34-17.06,2.67-6.68,7.6-10.45,7.23-10.8Z"/><path class="cls-6" d="m239.11,112.86c-.25-.38-5.58,1.53-8.42,6.49-.34.6-.59,1.14-.76,1.56-2.44,6.06.5,12.85.98,12.75.48-.09-2.52-6.72.56-13.14,2.6-5.4,7.88-7.29,7.63-7.66Z"/><path class="cls-6" d="m56.46,77.75c.49-.05,1.53,5.76,1.98,10.59.45,4.78.48,10.16.02,10.2-.43.04-1.22-4.71-1.58-7.45-.86-6.39-.95-13.29-.42-13.34Z"/><path class="cls-6" d="m35.09,82.7c-.29-.92,2.8-3,5.88-3.93,5.2-1.57,10.94,0,10.98,1.15.04,1.13-5.36,2.14-7.64,2.57-.8.15-8.78,1.61-9.22.22Z"/><path class="cls-6" d="m105.57,118.04c-.31-.05-2.32,9.91-3.88,19.62-3.53,21.94-4.46,40.95-4.03,41,.22.02.65-4.74,4.25-31.78,2.76-20.83,3.94-28.79,3.67-28.84Z"/><path class="cls-6" d="m159.05,182.65c-1.33-1.97,2.8-8.77,8.02-9.63,3.79-.62,4.91,2.76,9.62,2.92,5.8.19,10.35-4.62,11.95-6.3,3.68-3.89,5.19-8.29,6.45-11.98,1.76-5.15,1.82-8.48,5.07-12.76,1.09-1.44,3.1-3.7,3.72-3.34.51.3.1,2.36-3.9,11.97-4.68,11.26-7.03,16.89-8.79,18.65-3.58,3.59-9.24,5.29-20.57,8.67-7.09,2.12-10.64,3.15-11.57,1.79Z"/><path class="cls-3" d="m21.33,162.54c1.08-.81,10.73,11.15,16.9,17.61,23.88,25,56.86,31.59,75.58,35.34,19.03,3.81,43.17,8.63,70.41-.34,24.87-8.2,43.6-25.04,44.47-23.82.56.77-7.15,7.79-13.7,12.58-33.09,24.15-75.22,19.43-91.16,17.65-49.32-5.52-85.74-30.22-97.38-48.82-.9-1.43-5.97-9.55-5.12-10.19Z"/><path class="cls-3" d="m62.46,42.24c-1.81,4.39-1.42,8.41-1.15,10.98,0,0,.65,6.23,3.75,11.96,4.25,7.87,27.47,31.44,67.15,36.73,19.96,2.66,50.87,1.57,67.05-9.16,2.76-1.83,7.81-5.74,15.67-7.09,6.93-1.19,10.07.65,21.38.15,5.37-.23,14.43-.63,14.9-3.17.11-.55-.2-1.14-9.78-7.29-10.19-6.54-3.13-1.57-14.25-8.12-.49-.29-1.75-1.39-2.29-1.01-.56.39-.05,2.16.4,3.14,1.52,3.32,5.34,3.75,11,6.25,1.25.55,9.43,4.18,9.03,5.86-.36,1.51-7.5,1.15-17.45.63-9.87-.51-9.96-1.05-13.14-.56-5.46.84-7.18,2.74-16.66,6.9,0,0-3.11,1.36-12.15,4.73-8.46,3.15-34.47,9.84-65.69,2.3-13.15-3.17-26.35-6.36-38.28-17.77-3.57-3.41-18.68-17.85-15.95-32.72.96-5.22,4.05-10.05,3.12-10.6-.88-.52-4.72,3.16-6.65,7.86Z"/><path class="cls-3" d="m84.6,33.37c.82.46-6.19,8.37-5.45,17.27,1.2,14.36,21.92,23.48,31.24,27.59,8.23,3.63,28.98,12.41,54.73,6.75,2.19-.49,36.21-8.29,38.58-24.99.62-4.35-.82-10.03-.02-10.2.74-.16,3.35,4.43,3.35,8.82,0,15.36-32.09,26.35-33.87,26.94-10.03,3.34-18.98,4.12-25.29,4.17-15.75.12-26.88-4.34-41.79-10.31-14.6-5.83-18.73-9.74-21.01-12.31-2.24-2.52-9.61-10.82-8.08-20.97,1.16-7.67,6.92-13.16,7.62-12.76Z"/><path class="cls-3" d="m116.36,27.42c-2.97.77-25.27,6.54-25.66,16.33-.3,7.47,12.3,13.5,20.04,17.22,16.12,7.72,30.68,7.68,38.26,7.57,7.4-.11,26.56-.61,38.02-11.85,1.66-1.63,2.99-3.32,3.13-5.5.5-8.18-16.48-15.14-22.98-17.8-10.14-4.16-28.6-11.72-50.81-5.97Z"/><path class="cls-3" d="m104.98,23.13c3.69-1.88,13.17-6.27,25.87-7.11,17.89-1.19,31.5,5.35,41.79,10.31,17.3,8.33,27.99,18.64,27.89,18.77-.1.14-12.11-11.48-31.81-19.54-8.45-3.46-21.8-8.93-38.26-7.57-20.57,1.7-35.54,13.22-36.06,12.23-.31-.59,5.2-4.34,10.58-7.08Z"/><path class="cls-3" d="m39.17,157.41c-2.02-.88-6.32,2.29-6.07,4.92.1.96.77,1.66,4.32,3.91,2.46,1.57,8.76,5.56,9.23,4.88.32-.46-2.89-2.01-4.92-6.07-2.08-4.14-.94-6.93-2.57-7.64Z"/><path class="cls-3" d="m62.16,180.3c1.71-1.91,9.71,3.11,17.08,6.44,2.8,1.27,8.28,2.79,19.23,5.84,14.89,4.15,22.33,6.22,28.25,6.61,8.58.55,15.75-.45,16.08,1.14.33,1.56-6.36,3.53-6.07,4.92.57,2.78,28.5-1.29,28.63-.45.08.53-10.85,3.99-25.29,4.17-8.14.1-15.48-1.22-29.82-3.86-13.67-2.52-20.68-3.84-29.24-6.8-15.64-5.41-25.37-12.04-24.93-13.09.25-.6,3.77.79,5.29-.99,1.14-1.32-.01-3.04.78-3.92Z"/></svg>