<svg width="292" height="429" viewBox="0 0 292 429" fill="none" xmlns="http://www.w3.org/2000/svg">
<g clip-path="url(#clip0_290_47)">
<path d="M185.556 397.841C176.195 402.323 162.952 407.101 146.641 408.362C138.681 408.975 114.803 410.512 89.6733 397.064C80.1937 391.991 73.23 386.221 68.6348 381.886C67.3461 323.425 66.0658 264.976 64.7771 206.515C70.4496 211.016 78.4825 216.729 88.7845 222.124C118.291 237.581 146.304 239.857 162.002 239.821C193.074 239.752 216.963 230.547 229.918 224.414C215.135 282.22 200.339 340.034 185.556 397.841Z" fill="white"/>
<path d="M74.8017 214.032C72.5231 240.6 71.3712 269.919 72.2054 301.567C72.7459 322.077 74.0623 341.487 75.8962 359.699C80.934 364.674 89.4218 371.918 101.596 377.574C107.881 380.497 127.627 389.334 153.057 385.041C167.756 382.556 179.011 376.58 186.32 371.679L222.273 228.357C215.934 231.236 208.454 234.041 199.911 236.227C153.142 248.165 112.1 231.57 97.4043 225.396C88.2231 221.537 80.6377 217.476 74.8017 214.032Z" fill="#E4E4E4"/>
<path d="M85.9593 220.703C84.3387 221.287 81.7637 222.459 79.3035 224.79C75.6245 228.278 74.3514 232.317 73.909 234.112C72.7782 248.034 72.0666 262.966 71.9724 278.797C71.8635 297.515 72.6496 315.009 73.9789 331.127C83.9938 336.552 96.6218 342.143 111.705 346.201C145.364 355.258 174.556 352.198 192.169 348.782C201.344 312.22 210.529 275.66 219.704 239.099C219.223 238.231 217.633 235.615 214.34 234.279C212.269 233.443 210.416 233.467 209.392 233.561C200.151 236.454 189.327 238.905 177.134 239.995C136.02 243.67 103.111 229.73 85.9593 220.703Z" fill="#754C24"/>
<path d="M73.979 331.127C74.6185 340.648 75.2566 350.178 75.8962 359.699C82.0351 365.581 97.2773 378.575 120.958 383.415C145.041 388.334 164.077 382.002 168.906 380.268C176.411 377.577 182.275 374.275 186.32 371.679C188.506 363.579 190.693 355.469 192.879 347.369C185.552 348.489 174.981 349.754 162.185 349.989C149.398 350.225 130.006 350.443 106.478 343.927C98.3369 341.674 86.9397 337.838 73.979 331.127Z" fill="#C5B097"/>
<path d="M77.1497 239.634C77.4244 239.482 78.9163 243.407 83.072 247.567C88.9225 253.418 95.2506 254.932 95.0757 255.372C94.9022 255.801 88.6841 255.061 83.6308 250.68C78.4251 246.165 76.8084 239.827 77.1497 239.634Z" fill="white"/>
<path d="M138.604 268.761C132.869 269.01 124.376 268.627 114.853 265.315C109.928 263.6 105.829 261.489 102.562 259.49C102.544 261.356 102.526 263.223 102.506 265.1C101.781 337.092 101.662 349.261 101.658 349.29C102.536 349.438 103.916 349.537 104.77 348.731C105.907 347.653 105.486 345.541 105.345 344.773C104.459 339.804 105.962 334.667 105.519 329.641C105.032 324.225 104.919 307.172 105.803 265.012C110.439 267.11 116.639 269.373 124.175 270.709C129.859 271.716 134.957 271.96 139.163 271.874C138.98 270.836 138.787 269.798 138.604 268.761Z" fill="white"/>
<path d="M143.265 271.458C143.161 272.454 142.987 274.005 142.782 275.905C140.989 292.227 139.455 304.261 139.085 307.229C138.007 315.843 136.4 330.191 134.172 355.018C135.066 355.825 135.961 356.622 136.854 357.429C138.174 341.089 139.934 324.156 142.198 306.67C143.606 295.85 145.138 285.291 146.793 275.001C150.302 276.167 155.813 277.533 162.627 277.299C174.458 276.894 183.905 271.888 183.712 271.264C183.575 270.82 178.587 272.602 171.262 273.5C159.657 274.928 149.881 273.216 143.265 271.458Z" fill="white"/>
<path d="M189.091 269.013L188.867 270.072C179.553 313.646 170.594 355.544 170.23 357.219C171.316 356.699 172.4 356.19 173.486 355.67L191.916 270.434C197.486 266.866 203.058 263.289 208.628 259.722L189.091 269.013Z" fill="white"/>
<path d="M80.464 147.152C69.6426 150.281 62.3024 154.975 57.6713 157.992C49.314 163.428 42.6758 167.881 40.9445 175.774C39.426 182.688 42.4476 188.744 43.7387 191.336C47.7136 199.32 54.2015 203.424 59.6855 206.786C78.2503 218.19 87.5363 223.903 95.1378 227.088C109.92 233.294 126.837 240.387 150.542 242.2C180.204 244.463 202.306 237.06 215.617 232.443C233.003 226.417 251.347 219.772 258.249 203.262C259.392 200.538 261.636 194.963 260.403 188.418C257.946 175.41 243.451 167.709 228.925 161.62C166.028 135.265 104.702 140.14 80.464 147.152Z" fill="#808080"/>
<path d="M76.1987 92.9783C74.7773 93.0247 70.6711 93.3282 67.0047 93.6652C56.188 94.6724 55.0634 95.4591 54.5547 95.9006C49.305 100.464 55.5939 115.341 56.4874 117.401C64.7785 118.271 73.0809 119.132 81.372 120.001L85.4935 175.165C92.8132 182.381 102.792 190.144 115.854 195.737C163.652 216.193 211.601 189.926 219.397 185.5C224.567 170.759 229.739 156.009 234.909 141.269C242.779 142.744 250.647 144.229 258.517 145.705C259.338 145.197 267.178 140.191 267.742 130.875C268.097 125.016 265.387 120.712 264.373 119.272C257.31 116.903 250.239 114.523 243.176 112.154C244.029 108.569 244.891 104.996 245.745 101.411C152.432 96.0872 84.2999 92.7189 76.1987 92.9783Z" fill="#B1B1B1"/>
<path d="M128.82 22.807C120.398 24.9297 105.495 28.8907 92.716 41.8197C88.0019 46.5922 80.471 54.4119 77.953 66.9604C74.1095 86.1372 85.0139 101.24 86.7821 103.608C95.0733 114.714 105.706 118.388 121.245 123.766C132.416 127.63 152.135 134.209 176.808 130.817C194.758 128.349 209.869 121.356 224.644 114.517C235.01 109.726 237.063 107.831 246.304 104.524C263.847 98.2478 275.572 98.2213 276.168 93.6999C276.517 91.0122 272.699 88.4271 266.43 84.2033C257.658 78.2924 253.573 78.5889 247.786 73.4143C243.752 69.8077 242.138 66.451 240.172 63.2152C233.433 52.1328 224.345 45.4787 214.488 38.2686C195.086 24.0655 161.43 14.5743 128.82 22.807Z" fill="#808080"/>
<path d="M239.217 111.58C238.902 111.312 235.603 113.925 233.264 117.789C230.726 121.978 230.333 125.943 230.169 127.768C229.581 134.392 231.679 139.921 232.084 139.848C232.571 139.767 229.487 131.701 232.546 122.737C234.867 115.93 239.604 111.908 239.217 111.58Z" fill="#808080"/>
<path d="M261.963 121.953C261.693 121.591 256.466 123.763 253.887 128.865C253.575 129.487 253.354 130.031 253.21 130.465C251.081 136.643 254.363 143.273 254.846 143.151C255.317 143.037 251.981 136.571 254.733 129.998C257.05 124.474 262.234 122.316 261.963 121.953Z" fill="#808080"/>
<path d="M77.7473 96.2343C78.2325 96.1632 79.5719 101.905 80.2699 106.705C80.9651 111.454 81.2673 116.823 80.8132 116.889C80.3902 116.948 79.354 112.251 78.8495 109.53C77.6669 103.195 77.221 96.3095 77.7473 96.2343Z" fill="#808080"/>
<path d="M56.6622 102.269C56.329 101.362 59.3009 99.1256 62.3283 98.039C67.4448 96.2047 73.253 97.4719 73.3579 98.6289C73.4573 99.7549 68.1172 101.041 65.8561 101.582C65.0609 101.77 57.1711 103.636 56.6622 102.269Z" fill="#808080"/>
<path d="M128.859 133.965C128.551 133.93 127.052 143.979 125.987 153.757C123.59 175.852 123.627 194.885 124.058 194.907C124.279 194.919 124.468 190.136 126.674 162.951C128.369 142.008 129.138 133.995 128.859 133.965Z" fill="#808080"/>
<path d="M185.575 195.749C184.142 193.854 187.918 186.843 193.092 185.724C196.847 184.915 198.134 188.234 202.845 188.15C208.651 188.043 212.948 183.007 214.457 181.246C217.938 177.173 219.213 172.7 220.282 168.955C221.779 163.726 221.666 160.395 224.695 155.954C225.709 154.464 227.598 152.101 228.238 152.426C228.765 152.695 228.463 154.773 224.959 164.581C220.858 176.061 218.802 181.806 217.139 183.656C213.752 187.429 208.18 189.409 197.035 193.37C190.068 195.845 186.566 197.065 185.575 195.749Z" fill="#808080"/>
<path d="M47.0104 182.717C48.0447 181.856 58.2967 193.307 64.7928 199.444C89.9237 223.188 123.195 228.087 142.082 230.867C161.285 233.694 185.632 237.278 212.377 226.921C236.798 217.459 254.635 199.686 255.568 200.852C256.167 201.596 248.828 208.999 242.528 214.117C210.722 239.928 168.4 237.374 152.393 236.406C102.86 233.412 65.2138 210.61 52.6455 192.629C51.6742 191.245 46.1943 183.397 47.0104 182.717Z" fill="#979797"/>
<path d="M81.9271 60.4637C80.3475 64.9433 80.9397 68.9397 81.3372 71.4933C81.3372 71.4933 82.3093 77.6769 85.6955 83.2408C90.3456 90.8878 114.74 113.232 154.636 116.485C174.709 118.124 205.522 115.451 221.132 103.903C223.792 101.934 228.641 97.7675 236.423 96.0168C243.285 94.4762 246.509 96.1464 257.78 95.0737C263.128 94.5664 272.155 93.7038 272.496 91.1462C272.577 90.592 272.236 90.0171 262.354 84.3697C251.838 78.3574 259.153 82.9654 247.712 76.9907C247.205 76.7251 245.889 75.6955 245.376 76.096C244.841 76.5134 245.437 78.257 245.935 79.2085C247.628 82.4451 251.464 82.6784 257.236 84.8902C258.509 85.378 266.866 88.5812 266.558 90.2846C266.276 91.81 259.122 91.8126 249.16 91.8021C239.279 91.7931 239.154 91.2597 236.008 91.9147C230.602 93.0299 228.979 95.0176 219.727 99.6571C219.727 99.6571 216.688 101.176 207.836 105.005C199.547 108.582 173.91 116.594 142.345 110.66C129.046 108.164 115.708 105.653 103.206 94.8758C99.4698 91.656 83.6366 78.0009 85.5984 63.0173C86.2916 57.7523 89.1253 52.7776 88.1676 52.2749C87.2664 51.8006 83.612 55.676 81.9271 60.4637Z" fill="#979797"/>
<path d="M103.587 50.4703C104.426 50.8851 97.8314 59.1437 99.0225 67.9965C100.951 82.2815 122.116 90.324 131.634 93.9483C140.042 97.1487 161.214 104.859 186.638 97.8874C188.796 97.2911 222.374 87.7538 223.891 70.9576C224.284 66.5787 222.56 60.9831 223.348 60.7741C224.074 60.5763 226.924 65.0317 227.147 69.4091C227.933 84.7509 196.444 97.3701 194.699 98.0465C184.855 101.893 175.954 103.138 169.655 103.507C153.93 104.428 142.59 100.55 127.388 95.3532C112.513 90.2746 108.188 86.5853 105.775 84.1334C103.406 81.7283 95.6213 73.8185 96.628 63.6072C97.3945 55.8873 102.87 50.1137 103.587 50.4703Z" fill="#979797"/>
<path d="M134.999 42.9024C132.076 43.8223 110.097 50.7278 110.211 60.5257C110.298 68.0057 123.19 73.3826 131.106 76.6937C147.598 83.5832 162.142 82.7934 169.702 82.2938C177.088 81.8094 196.199 80.3283 207.068 68.5165C208.64 66.8045 209.885 65.0452 209.908 62.8659C209.986 54.6721 192.679 48.594 186.045 46.2672C175.709 42.6354 156.883 36.0236 134.999 42.9024Z" fill="#979797"/>
<path d="M123.41 39.2001C127.004 37.1348 136.24 32.2604 148.885 30.7707C166.691 28.6659 180.617 34.506 191.152 38.9245C208.859 46.3541 220.055 56.1028 219.964 56.2412C219.872 56.3895 207.28 45.3975 187.193 38.3502C178.577 35.3317 164.963 30.5472 148.598 32.75C128.14 35.501 113.779 47.776 113.211 46.8145C112.87 46.2396 118.184 42.2108 123.41 39.2001Z" fill="#979797"/>
<path d="M64.5598 176.674C62.4996 175.9 58.3612 179.281 58.7501 181.894C58.8951 182.845 59.6064 183.514 63.2675 185.581C65.8071 187.021 72.2988 190.681 72.7331 189.986C73.0339 189.514 69.7489 188.128 67.5132 184.176C65.2282 180.146 66.2173 177.299 64.5598 176.674Z" fill="#979797"/>
<path d="M88.6953 198.365C90.309 196.366 98.5523 200.977 106.078 203.918C108.936 205.041 114.486 206.28 125.583 208.77C140.664 212.15 148.2 213.84 154.139 213.923C162.732 214.038 169.843 212.665 170.261 214.242C170.673 215.787 164.093 218.096 164.451 219.462C165.163 222.212 192.85 216.711 193.022 217.544C193.129 218.065 182.39 222.085 167.979 223.005C159.85 223.523 152.459 222.582 138.002 220.676C124.221 218.858 117.155 217.904 108.457 215.379C92.5628 210.779 82.5084 204.652 82.8855 203.585C83.1061 202.97 86.6899 204.177 88.1209 202.323C89.1903 200.943 87.955 199.288 88.6953 198.365Z" fill="#979797"/>
</g>
<defs>
<clipPath id="clip0_290_47">
<rect width="237" height="399" fill="white" transform="translate(57.2939) rotate(8.25587)"/>
</clipPath>
</defs>
</svg>
