<?xml version="1.0" encoding="UTF-8"?><svg width="52" height="53" id="Layer_2" xmlns="http://www.w3.org/2000/svg" viewBox="0 0 52 53"><defs><style>.cls-1,.cls-2{fill:#a23c2e;}.cls-3{fill:#36405e;}.cls-2{stroke:#36405e;stroke-miterlimit:1.35;stroke-width:.41px;}</style></defs><path class="cls-1" d="m28.2,39.36c-.81.76-.79.34-2.29,1.41-.51.36-2.45,1.74-2.93,2.81-.04.08-.16.37-.44.64-.19.18-.51.41-.76.44-.87.11-1.79-1.98-1.95-2.35-.78-1.78-.92-3.35-.95-3.79-.19-2.6.5-4.01-.36-4.68-.27-.21-.68-.34-.86-.19-.33.26.3,1.19.54,2.98.04.28,0,.04.12,1.96.07,1.02.12,1.65.39,2.43.1.28.17.48.31.75.92,1.73,1.39,2.6,1.62,2.84.1.1.41.41.41.81,0,.36-.26.45-.41.81-.31.77.49,1.34.27,2.03-.04.11-.14.34-1.35.95-1.52.76-2,.72-2.7,1.35-.32.29-.91.82-.81,1.35.12.67,1.27,1.09,2.16,1.08,1.84,0,3.8-1.82,3.79-3.38,0-.61-.31-1.1,0-1.76.25-.52.61-.57.81-1.08.25-.64-.13-1.02-.14-1.62,0-.11.01-.17.01-.19.07-.52.37-.88.54-1.07,1.11-1.26,2.33-2.17,2.33-2.17.54-.41.82-.61,1.17-.8.54-.3.87-.39,1.4-.77.25-.18.29-.25.63-.54,1.19-1.02,1.99-1.37,1.91-1.62-.05-.14-.35-.16-.4-.16-.78-.04-1.27.79-2.05,1.53Zm-6.62,8.5c.34.11.54,2.64-1.08,3.92-.98.78-2.14.7-2.43.68-.74-.05-1.86-.36-1.89-.81-.02-.33.66-.68,2.03-1.35,1.34-.66,1.7-.69,2.3-1.22.79-.69.91-1.27,1.08-1.22Z"/><path class="cls-2" d="m34.7.25c-9.78,3.92-19.57,7.84-29.35,11.77-.77.5-1.87,1.41-2.43,2.84-1.17,2.98.77,6.18,1.89,7.98,5.59,8.94,16.99,12.68,21.37,14.07,7.79,2.46,12.33,2.09,15.42,1.35,2.14-.51,5.66-1.46,7.17-4.33,1.72-3.27-.11-7.28-2.16-11.5-2.81-5.77-6.71-13.33-11.9-22.18Z"/><path class="cls-3" d="m31.18,1.88s.24.59,1.62,2.84c3.14-.91,3.8-1.16,3.79-1.22-.02-.06-.87.06-1.56.2-1.25.25-1.58.49-2.03.27-.22-.11-.22-.2-.81-.95-.12-.15-.95-1.19-1.01-1.15Z"/><g><path class="cls-3" d="m8.26,12.36s-.35,1-.14,2.16c.18.95.63,1.64.68,1.62.04-.02-.39-.81-.54-2.03-.13-1.05.04-1.75,0-1.76Z"/><path class="cls-3" d="m9.34,11.14s-.35,1-.14,2.16c.18.95.63,1.64.68,1.62.04-.02-.39-.81-.54-2.03-.13-1.05.04-1.75,0-1.76Z"/><path class="cls-3" d="m10.69,10.33s-.35,1-.14,2.16c.18.95.63,1.64.68,1.62.04-.02-.39-.81-.54-2.03-.13-1.05.04-1.75,0-1.76Z"/><path class="cls-3" d="m20.08,6.81s-.22.78-.08,1.7c.11.75.38,1.29.41,1.28.03-.01-.24-.64-.33-1.59-.08-.82.02-1.38,0-1.38h0Z"/><path class="cls-3" d="m16.56,8.57s-.22.78-.08,1.7c.11.75.38,1.29.41,1.28s-.24-.64-.33-1.59c-.08-.82.02-1.38,0-1.38h0Z"/><path class="cls-3" d="m13.91,9.38s-.31.78-.12,1.7c.16.75.55,1.29.59,1.28.04-.01-.34-.64-.47-1.59-.11-.82.03-1.38,0-1.38h0Z"/><path class="cls-3" d="m37.88,13.52s.83-.14,1.52-.78c.56-.52.82-1.14.79-1.16-.03-.03-.37.62-1.12,1.23-.65.52-1.2.69-1.18.71Z"/><path class="cls-3" d="m38.28,14.33s.83-.14,1.52-.78c.56-.52.82-1.14.79-1.16-.03-.03-.37.62-1.12,1.23-.65.52-1.2.69-1.18.71Z"/><path class="cls-3" d="m38.69,15.15s.83-.14,1.52-.78c.56-.52.82-1.14.79-1.16-.03-.03-.37.62-1.12,1.23-.65.52-1.2.69-1.18.71Z"/><path class="cls-3" d="m39.1,16.5s.83-.14,1.52-.78c.56-.52.82-1.14.79-1.16-.03-.03-.37.62-1.12,1.23-.65.52-1.2.69-1.18.71Z"/><path class="cls-3" d="m39.5,17.31s.83-.14,1.52-.78c.56-.52.82-1.14.79-1.16-.03-.03-.37.62-1.12,1.23-.65.52-1.2.69-1.18.71Z"/><path class="cls-3" d="m41.99,21.58s.79-.29,1.34-1.05c.45-.61.59-1.27.55-1.29-.04-.02-.24.68-.87,1.42-.54.63-1.05.9-1.03.92h0Z"/><path class="cls-3" d="m41.31,21.31s.79-.29,1.34-1.05c.45-.61.59-1.27.55-1.29-.04-.02-.24.68-.87,1.42-.54.63-1.05.9-1.03.92h0Z"/><path class="cls-3" d="m34.27,16.62s1.13.17,2.38-.18c1.02-.28,1.72-.77,1.7-.81-.02-.04-.84.45-2.16.75-1.13.25-1.92.21-1.92.24h0Z"/><path class="cls-3" d="m34.4,18.65s1.13.17,2.38-.18c1.02-.28,1.72-.77,1.7-.81-.02-.04-.84.45-2.16.75-1.13.25-1.92.21-1.92.24h0Z"/><path class="cls-3" d="m35.76,21.49s1.13.17,2.38-.18c1.02-.28,1.72-.77,1.7-.81-.02-.04-.84.45-2.16.75-1.13.25-1.92.21-1.92.24h0Z"/><path class="cls-3" d="m36.38,28.97s1.86.08,3.98-.38c1.72-.37,2.94-.93,2.9-.96-.04-.03-1.44.52-3.66.93-1.91.35-3.22.37-3.23.4Z"/><path class="cls-3" d="m37.33,29.78s1.86.08,3.98-.38c1.72-.37,2.94-.93,2.9-.96-.04-.03-1.44.52-3.66.93-1.91.35-3.22.37-3.23.4Z"/><path class="cls-3" d="m34.36,17.76s1.09.21,2.33-.09c1-.25,1.71-.71,1.69-.75-.02-.04-.84.42-2.13.67-1.11.21-1.88.14-1.88.17h0Z"/><path class="cls-3" d="m10.96,20.88c-1.28-1.52-.88-3.73-.81-4.06.43-2.2,2.09-3.45,2.57-3.79.31.46.76,1.24.95,2.3.52,2.86-1.15,6.04-2.16,5.95-.07,0-.23-.04-.54-.41Z"/><path class="cls-3" d="m11.8,21.63c1.51,1.39,3.88,1.15,4.22,1.11,2.35-.27,3.78-1.83,4.17-2.28-.46-.34-1.26-.85-2.36-1.11-2.98-.73-6.45.7-6.43,1.72,0,.07.02.23.39.57h0Z"/><path class="cls-3" d="m11.42,20.4c.36-2.51,2.77-4.33,3.12-4.59,2.42-1.78,4.97-1.66,5.69-1.59-.17.69-.53,1.82-1.36,2.99-2.24,3.19-6.62,4.92-7.38,4.02-.05-.06-.16-.22-.07-.83Z"/><path class="cls-3" d="m30.87,31.61c-1.94-.41-2.99-2.4-3.14-2.69-1.02-2-.49-4-.32-4.57.52.17,1.36.51,2.16,1.22,2.17,1.93,2.82,5.46,1.97,6.02-.06.04-.2.11-.68.01,0,0,0,0,0,0Z"/><path class="cls-3" d="m47.86,27.55c-1.82.23-3.52-1.11-3.77-1.31-1.68-1.36-2.04-3.18-2.13-3.7.51-.01,1.37.03,2.34.38,2.63.96,4.62,3.71,4.13,4.42-.04.05-.13.15-.57.21h0Z"/><path class="cls-3" d="m31.99,31.68c2.05.16,3.76-1.49,4.01-1.73,1.68-1.66,1.85-3.77,1.87-4.37-.57.02-1.51.11-2.54.58-2.79,1.26-4.64,4.54-4,5.32.05.06.16.17.66.21h0Z"/><path class="cls-3" d="m30.93,30.96c-1.27-2.19-.5-5.11-.38-5.54.8-2.9,2.89-4.37,3.49-4.77.29.65.7,1.76.78,3.19.2,3.89-2.17,7.96-3.32,7.72-.08-.02-.26-.08-.57-.61Z"/><path class="cls-3" d="m6.84,12.02c-.08-.05-.59.59-.95,1.22-.67,1.18-.79,2.31-.81,2.98.05.25.13.63.27,1.08,0,0,.37,1.2,1.08,2.43.69,1.2,3.34,4.27,7.44,7.84,0,0,10.8,7.92,26.78,7.17.78-.04,2.46-.19,4.29-1.06.98-.47,2.26-1.1,3.01-2.45.9-1.61.56-3.38.54-3.38-.01,0,.08,1.01-.41,2.16,0,0-.4.95-1.22,1.76-3.2,3.15-11.23,2.43-11.23,2.43-5.67-.51-15.52-1.38-23.94-8.93-1.41-1.26-7.37-6.61-6.09-10.55.32-.99,1.34-2.63,1.22-2.7Z"/><path class="cls-3" d="m4.54,13.51c-.2.49-.4,1.08-.54,1.76-.27,1.3-.23,2.43-.14,3.25.05.25.13.63.27,1.08,0,0,.37,1.2,1.08,2.43.69,1.2,3.34,4.27,7.44,7.84.68.48,1.59,1.1,2.7,1.76,0,0,11.2,6.65,24.07,5.41,1.35-.13,2.45-.41,2.98-.54,2.12-.54,3.54-.91,4.73-2.16,1.01-1.07,1.41-2.31,1.49-2.57.18-.59.25-1.11.27-1.49-.06.58-.25,1.59-.95,2.57-.35.49-.75.87-1.22,1.22-2.07,1.54-4.92,2.08-5.41,2.16-3.66.66-6.56.56-6.9.54-2.97-.13-7.91-.38-13.8-2.84-4.54-1.9-7.9-4.38-10.14-6.36h0c-2.32-2.05-7.12-6.29-6.63-11.5.1-1.1.42-1.98.68-2.57Z"/></g><path class="cls-3" d="m34.63.59c-.05-.02-.55.95-.95,2.03-.21.57-.45,1.33-.41,1.35.06.02.57-1.16.95-2.16.16-.41.45-1.2.41-1.22Z"/></svg>