<?xml version="1.0" encoding="UTF-8"?><svg width="52" height="53" id="Layer_2" xmlns="http://www.w3.org/2000/svg" viewBox="0 0 52 53"><defs><style>.cls-1{fill:#aa4f48;stroke:#414c68;stroke-miterlimit:1.35;stroke-width:.41px;}.cls-2{fill:#b17440;}.cls-3{fill:#414c68;}</style></defs><path class="cls-2" d="m37.19,33.11c.06,1.11-.25.82-.39,2.66-.05.62-.24,3,.28,4.05.04.08.18.36.21.75.02.26-.01.65-.15.87-.47.74-2.67.1-3.05-.01-1.87-.54-3.16-1.44-3.52-1.7-2.12-1.52-2.76-2.95-3.82-2.72-.33.07-.7.3-.7.54-.01.42,1.11.53,2.63,1.5.24.15.03.03,1.58,1.16.83.6,1.34.97,2.11,1.26.28.1.48.18.77.24,1.92.4,2.89.6,3.22.58.14-.01.58-.05.88.2.28.23.18.49.36.83.39.73,1.34.48,1.73,1.09.06.1.17.33-.14,1.65-.39,1.65-.73,2-.7,2.94.02.43.05,1.22.52,1.49.59.34,1.65-.28,2.21-.96,1.18-1.41,1.04-4.08-.16-5.08-.47-.39-1.04-.47-1.35-1.13-.24-.53-.05-.83-.31-1.31-.33-.6-.87-.55-1.33-.93-.08-.07-.12-.12-.14-.13-.35-.39-.44-.85-.47-1.1-.26-1.66-.17-3.18-.17-3.18.03-.68.06-1.02.14-1.41.12-.61.26-.92.31-1.57.02-.31,0-.38-.01-.83-.02-1.57.22-2.41-.02-2.5-.14-.05-.35.17-.38.2-.53.57-.21,1.48-.14,2.55h0Zm2.28,10.54c.3-.19,2.37,1.28,2.32,3.34-.03,1.25-.84,2.09-1.04,2.3-.51.54-1.47,1.2-1.83.93-.27-.2-.1-.94.27-2.42.35-1.45.56-1.75.54-2.55-.02-1.05-.39-1.51-.24-1.61h0Z"/><path class="cls-1" d="m11.35,3.04c-3.26,10.02-6.53,20.04-9.79,30.07-.11.91-.12,2.34.62,3.69,1.54,2.81,5.24,3.37,7.34,3.67,10.44,1.44,20.62-4.91,24.5-7.38,6.88-4.4,9.51-8.12,10.92-10.97.98-1.97,2.51-5.28,1.27-8.28-1.41-3.42-5.66-4.58-10.21-5.72-6.23-1.54-14.53-3.4-24.65-5.09h0Z"/><path class="cls-3" d="m10.34,6.79s.61.19,3.22.58c1.32-2.99,1.55-3.66,1.49-3.69-.06-.02-.51.71-.85,1.33-.61,1.12-.64,1.53-1.09,1.73-.23.1-.29.04-1.25.01-.19,0-1.52-.03-1.53.04h0Z"/><g><path class="cls-3" d="m3.68,31.09s.54.91,1.57,1.49c.84.47,1.66.57,1.68.52.01-.04-.87-.22-1.9-.89-.89-.57-1.32-1.15-1.35-1.13h0Z"/><path class="cls-3" d="m3.44,29.48s.54.91,1.57,1.49c.84.47,1.66.57,1.68.52.01-.04-.87-.22-1.9-.89-.89-.57-1.32-1.15-1.35-1.13h0Z"/><path class="cls-3" d="m3.68,27.93s.54.91,1.57,1.49c.84.47,1.66.57,1.68.52.01-.04-.87-.22-1.9-.89-.89-.57-1.32-1.15-1.35-1.13h0Z"/><path class="cls-3" d="m7,18.46s.46.67,1.25,1.15c.65.4,1.23.54,1.25.51s-.64-.23-1.43-.77c-.68-.46-1.05-.9-1.06-.88h0Z"/><path class="cls-3" d="m6.1,22.29s.46.67,1.25,1.15c.65.4,1.23.54,1.25.51s-.64-.23-1.43-.77c-.68-.46-1.05-.9-1.06-.88h0Z"/><path class="cls-3" d="m5.02,24.85s.4.74,1.23,1.18c.68.36,1.34.41,1.36.37s-.71-.15-1.52-.66c-.7-.44-1.04-.91-1.06-.88h0Z"/><path class="cls-3" d="m23.57,9.11s.42-.73.38-1.67c-.04-.76-.35-1.36-.38-1.35-.04,0,.24.68.23,1.65-.02.83-.24,1.36-.21,1.36h0Z"/><path class="cls-3" d="m24.45,9.32s.42-.73.38-1.67c-.04-.76-.35-1.36-.38-1.35-.04,0,.24.68.23,1.65-.02.83-.24,1.36-.21,1.36h0Z"/><path class="cls-3" d="m25.34,9.53s.42-.73.38-1.67c-.04-.76-.35-1.36-.38-1.35-.04,0,.24.68.23,1.65-.02.83-.24,1.36-.21,1.36h0Z"/><path class="cls-3" d="m26.64,10.08s.42-.73.38-1.67c-.04-.76-.35-1.36-.38-1.35-.04,0,.24.68.23,1.65-.02.83-.24,1.36-.21,1.36h0Z"/><path class="cls-3" d="m27.51,10.29s.42-.73.38-1.67c-.04-.76-.35-1.36-.38-1.35-.04,0,.24.68.23,1.65-.02.83-.24,1.36-.21,1.36h0Z"/><path class="cls-3" d="m32.39,11.12s.28-.79.05-1.7c-.18-.74-.6-1.27-.64-1.25-.04.02.37.62.53,1.58.14.82.02,1.38.05,1.38h0Z"/><path class="cls-3" d="m31.74,11.47s.28-.79.05-1.7c-.18-.74-.6-1.27-.64-1.25-.04.02.37.62.53,1.58.14.82.02,1.38.05,1.38h0Z"/><path class="cls-3" d="m23.63,13.87s.86-.76,1.39-1.94c.44-.96.51-1.81.47-1.82s-.19.93-.81,2.14c-.53,1.03-1.07,1.61-1.05,1.63h0Z"/><path class="cls-3" d="m25.27,15.07s.86-.76,1.39-1.94c.44-.96.51-1.81.47-1.82-.04-.01-.19.93-.81,2.14-.53,1.03-1.07,1.61-1.05,1.63h0Z"/><path class="cls-3" d="m28.32,15.85s.86-.76,1.39-1.94c.44-.96.51-1.81.47-1.82-.04-.01-.19.93-.81,2.14-.53,1.03-1.07,1.61-1.05,1.63h0Z"/><path class="cls-3" d="m34.46,20.17s1.25-1.38,2.26-3.3c.82-1.56,1.17-2.85,1.12-2.84-.05.01-.52,1.44-1.63,3.4-.96,1.69-1.78,2.71-1.76,2.74h.01Z"/><path class="cls-3" d="m35.69,19.96s1.25-1.38,2.26-3.3c.82-1.56,1.17-2.85,1.12-2.84-.05.01-.52,1.44-1.63,3.4-.96,1.69-1.78,2.71-1.76,2.74h.01Z"/><path class="cls-3" d="m24.56,14.53s.86-.7,1.42-1.85c.45-.93.55-1.77.51-1.78s-.22.91-.85,2.06c-.55.99-1.1,1.53-1.08,1.55h0Z"/><path class="cls-3" d="m11.95,34.48c-1.99,0-3.43-1.72-3.63-1.98-1.41-1.74-1.31-3.82-1.26-4.4.55.06,1.44.21,2.37.75,2.53,1.43,3.9,4.76,3.18,5.47-.04.05-.18.15-.66.15h0Z"/><path class="cls-3" d="m13.07,34.32c2.03-.27,3.37-2.24,3.56-2.53,1.3-1.98,1.02-4.07.92-4.66-.56.13-1.46.42-2.37,1.1-2.47,1.82-3.6,5.4-2.8,6.04.05.04.19.13.69.07h0Z"/><path class="cls-3" d="m11.88,33.82c-1.7-1.89-1.55-4.9-1.52-5.34.19-3,1.91-4.88,2.43-5.39.42.57,1.06,1.57,1.42,2.96,1.01,3.76-.47,8.23-1.65,8.24-.08,0-.27-.02-.68-.48Z"/><path class="cls-3" d="m32.95,26.09c-1.56,1.23-3.76.76-4.08.68-2.19-.5-3.38-2.19-3.71-2.68.46-.29,1.26-.72,2.32-.88,2.87-.43,6,1.34,5.88,2.35,0,.07-.04.22-.43.53h.01Z"/><path class="cls-3" d="m40.73,10.45c-.99,1.54-3.11,1.99-3.42,2.05-2.12.42-3.75-.47-4.21-.74.32-.4.9-1.03,1.79-1.55,2.42-1.4,5.81-1.17,6.04-.33.01.06.03.2-.2.57h0Z"/><path class="cls-3" d="m33.73,25.27c1.44-1.47,1.27-3.84,1.24-4.19-.2-2.35-1.71-3.84-2.15-4.24-.35.45-.88,1.23-1.18,2.32-.82,2.95.51,6.47,1.52,6.48.08,0,.23-.01.58-.37h0Z"/><path class="cls-3" d="m32.49,25.62c-2.49-.43-4.24-2.89-4.49-3.26-1.71-2.47-1.5-5.02-1.42-5.74.68.19,1.8.59,2.95,1.45,3.11,2.34,4.72,6.77,3.8,7.5-.07.05-.23.15-.83.05h0Z"/><path class="cls-3" d="m2.51,31.96c-.09.03.07.83.33,1.51.48,1.27,1.27,2.09,1.77,2.53.22.12.57.3,1,.49,0,0,1.16.49,2.56.73,1.36.24,5.42.18,10.79-.68,0,0,13-3.21,22.67-15.95.47-.62,1.43-2.01,1.94-3.97.27-1.05.61-2.44.05-3.88-.66-1.72-2.23-2.6-2.25-2.58,0,0,.83.59,1.39,1.7,0,0,.47.92.57,2.06.37,4.48-5.34,10.18-5.34,10.18-4.03,4.02-11.01,11.02-22.2,12.64-1.87.27-9.8,1.42-12-2.09-.55-.88-1.16-2.71-1.29-2.67v-.02Z"/><path class="cls-3" d="m2.18,34.68c.25.47.57,1,1,1.54.82,1.04,1.72,1.73,2.4,2.19.22.12.57.3,1,.49,0,0,1.16.49,2.56.73,1.36.24,5.42.18,10.79-.68.8-.21,1.86-.51,3.08-.94,0,0,12.28-4.33,19.59-15,.77-1.12,1.26-2.14,1.5-2.63.95-1.97,1.57-3.3,1.38-5.01-.17-1.46-.87-2.56-1.02-2.79-.34-.52-.69-.9-.97-1.16.41.42,1.06,1.21,1.36,2.38.15.58.19,1.13.15,1.72-.15,2.58-1.56,5.11-1.81,5.54-1.84,3.23-3.78,5.39-4.01,5.64-2,2.2-5.36,5.83-11.03,8.77-4.37,2.27-8.43,3.25-11.38,3.7h0c-3.06.47-9.39,1.43-13.08-2.29-.78-.78-1.25-1.59-1.54-2.17h.02Z"/></g><path class="cls-3" d="m11.56,3.31s.38,1.03.95,2.03c.3.53.73,1.2.77,1.18.05-.03-.52-1.18-1.05-2.11-.21-.39-.63-1.11-.67-1.1Z"/></svg>