<?xml version="1.0" encoding="utf-8"?>
<!-- Generator: Adobe Illustrator 27.1.1, SVG Export Plug-In . SVG Version: 6.00 Build 0)  -->
<svg version="1.1" id="Layer_2_00000182524162066703700580000016128149009156105609_"
	 xmlns="http://www.w3.org/2000/svg" xmlns:xlink="http://www.w3.org/1999/xlink" x="0px" y="0px" viewBox="0 0 52 53"
	 style="enable-background:new 0 0 52 53;" xml:space="preserve">
<style type="text/css">
	.st0{fill:#A23C2E;stroke:#36405E;stroke-width:0.4057;stroke-miterlimit:1.3525;}
	.st1{fill:#36405E;}
	.st2{fill:#A23C2E;}
</style>
<path class="st0" d="M7.8,5.6C6.2,16,4.5,26.4,2.9,36.9c0,0.9,0.2,2.3,1.2,3.5c2,2.5,5.7,2.5,7.8,2.5c10.5-0.2,19.6-8.1,23-11.1
	C41,26.3,43,22.2,44,19.2c0.7-2.1,1.6-5.6,0-8.4c-1.9-3.2-6.3-3.6-11-4C26.6,6.2,18.1,5.7,7.8,5.6z"/>
<path class="st1" d="M7.4,9.5c0,0.1,0.6,0.1,3.3,0.1c0.8-3.2,1-3.9,0.9-3.9c-0.1,0-0.4,0.8-0.6,1.4c-0.4,1.2-0.4,1.6-0.8,1.9
	C10,9.1,9.9,9.1,8.9,9.2C8.7,9.2,7.4,9.4,7.4,9.5z"/>
<g>
	<path class="st1" d="M4.6,34.5c0,0,0.7,0.8,1.8,1.2c0.9,0.3,1.7,0.3,1.7,0.3c0,0-0.9-0.1-2-0.6C5.2,35,4.7,34.5,4.6,34.5z"/>
	<path class="st1" d="M4.2,33c0,0,0.7,0.8,1.8,1.2c0.9,0.3,1.7,0.3,1.7,0.3c0,0-0.9-0.1-2-0.6C4.7,33.5,4.2,32.9,4.2,33z"/>
	<path class="st1" d="M4.2,31.4c0,0,0.7,0.8,1.8,1.2c0.9,0.3,1.7,0.3,1.7,0.3c0,0-0.9-0.1-2-0.6C4.7,31.9,4.2,31.4,4.2,31.4z"/>
	<path class="st1" d="M6,21.5c0,0,0.6,0.6,1.4,0.9c0.7,0.3,1.3,0.3,1.3,0.3c0,0-0.7-0.1-1.5-0.5C6.4,21.9,6,21.5,6,21.5L6,21.5
		L6,21.5z"/>
	<path class="st1" d="M5.7,25.5c0,0,0.6,0.6,1.4,0.9c0.7,0.3,1.3,0.3,1.3,0.3c0,0-0.7-0.1-1.5-0.5C6.1,25.8,5.7,25.4,5.7,25.5
		L5.7,25.5L5.7,25.5z"/>
	<path class="st1" d="M5,28.1c0,0,0.5,0.7,1.4,1c0.7,0.2,1.4,0.2,1.4,0.1c0,0-0.7,0-1.6-0.4C5.4,28.5,5,28.1,5,28.1L5,28.1L5,28.1z"
		/>
	<path class="st1" d="M20.9,9.7c0,0,0.3-0.8,0.1-1.7c-0.2-0.7-0.6-1.3-0.6-1.3c0,0,0.3,0.6,0.5,1.6C21,9.1,20.8,9.7,20.9,9.7z"/>
	<path class="st1" d="M21.8,9.8c0,0,0.3-0.8,0.1-1.7c-0.2-0.7-0.6-1.3-0.6-1.3c0,0,0.3,0.6,0.5,1.6C21.9,9.2,21.7,9.8,21.8,9.8z"/>
	<path class="st1" d="M22.7,9.8c0,0,0.3-0.8,0.1-1.7c-0.2-0.7-0.6-1.3-0.6-1.3c0,0,0.3,0.6,0.5,1.6C22.8,9.3,22.6,9.8,22.7,9.8z"/>
	<path class="st1" d="M24,10.2c0,0,0.3-0.8,0.1-1.7c-0.2-0.7-0.6-1.3-0.6-1.3c0,0,0.3,0.6,0.5,1.6C24.1,9.6,24,10.2,24,10.2z"/>
	<path class="st1" d="M24.9,10.3c0,0,0.3-0.8,0.1-1.7c-0.2-0.7-0.6-1.3-0.6-1.3c0,0,0.3,0.6,0.5,1.6C25,9.7,24.9,10.3,24.9,10.3z"/>
	<path class="st1" d="M29.9,10.3c0,0,0.2-0.8-0.2-1.7c-0.3-0.7-0.8-1.2-0.8-1.1c0,0,0.5,0.6,0.8,1.5C29.9,9.7,29.8,10.3,29.9,10.3
		C29.9,10.3,29.9,10.3,29.9,10.3z"/>
	<path class="st1" d="M29.3,10.8c0,0,0.2-0.8-0.2-1.7c-0.3-0.7-0.8-1.2-0.8-1.1c0,0,0.5,0.6,0.8,1.5C29.3,10.2,29.3,10.8,29.3,10.8
		C29.3,10.8,29.3,10.8,29.3,10.8z"/>
	<path class="st1" d="M21.7,14.4c0,0,0.7-0.9,1.1-2.1c0.3-1,0.2-1.9,0.2-1.9c0,0,0,1-0.5,2.2C22.1,13.7,21.6,14.4,21.7,14.4
		L21.7,14.4L21.7,14.4z"/>
	<path class="st1" d="M23.5,15.3c0,0,0.7-0.9,1.1-2.1c0.3-1,0.2-1.9,0.2-1.9c0,0,0,1-0.5,2.2C23.9,14.6,23.4,15.3,23.5,15.3
		L23.5,15.3L23.5,15.3z"/>
	<path class="st1" d="M26.6,15.6c0,0,0.7-0.9,1.1-2.1c0.3-1,0.2-1.9,0.2-1.9c0,0,0,1-0.5,2.2C27,14.9,26.6,15.6,26.6,15.6L26.6,15.6
		L26.6,15.6z"/>
	<path class="st1" d="M33.3,18.9c0,0,1-1.6,1.7-3.6c0.6-1.7,0.7-3,0.7-3c0,0-0.3,1.5-1.1,3.6C34,17.8,33.3,18.9,33.3,18.9z"/>
	<path class="st1" d="M34.5,18.5c0,0,1-1.6,1.7-3.6c0.6-1.7,0.7-3,0.7-3c0,0-0.3,1.5-1.1,3.6C35.2,17.4,34.5,18.5,34.5,18.5z"/>
	<path class="st1" d="M22.7,14.9c0,0,0.7-0.8,1.1-2c0.3-1,0.3-1.8,0.2-1.8c0,0-0.1,0.9-0.5,2.2C23.1,14.3,22.7,14.9,22.7,14.9
		C22.7,14.9,22.7,14.9,22.7,14.9z"/>
	<path class="st1" d="M13.3,36.6c-2,0.3-3.7-1.2-3.9-1.4c-1.7-1.5-1.9-3.6-1.9-4.1c0.5,0,1.5,0,2.5,0.4c2.7,1,4.6,4.1,4,4.9
		C13.9,36.4,13.8,36.5,13.3,36.6z"/>
	<path class="st1" d="M14.4,36.2c2-0.6,3-2.7,3.1-3.1c1-2.2,0.4-4.2,0.2-4.8c-0.5,0.2-1.4,0.6-2.2,1.5c-2.2,2.2-2.7,5.9-1.8,6.4
		C13.8,36.3,13.9,36.4,14.4,36.2L14.4,36.2z"/>
	<path class="st1" d="M13.2,35.9c-2-1.6-2.3-4.6-2.3-5c-0.3-3,1.1-5.1,1.6-5.7c0.5,0.5,1.3,1.4,1.9,2.7c1.6,3.6,0.8,8.2-0.3,8.4
		C13.8,36.3,13.6,36.3,13.2,35.9z"/>
	<path class="st1" d="M32.8,25c-1.3,1.5-3.6,1.3-3.9,1.3c-2.2-0.2-3.7-1.6-4.1-2.1c0.4-0.4,1.1-0.9,2.2-1.2c2.8-0.9,6.1,0.4,6.2,1.4
		C33.1,24.5,33.1,24.7,32.8,25C32.8,25,32.8,25,32.8,25z"/>
	<path class="st1" d="M38,8.3c-0.7,1.7-2.8,2.4-3.1,2.6c-2,0.7-3.8,0.1-4.3-0.1c0.3-0.4,0.7-1.2,1.5-1.8c2.2-1.8,5.6-2.1,5.9-1.3
		C38.1,7.8,38.2,7.9,38,8.3L38,8.3L38,8.3z"/>
	<path class="st1" d="M33.4,24.1c1.2-1.7,0.7-4,0.6-4.3c-0.6-2.3-2.3-3.5-2.8-3.9c-0.3,0.5-0.7,1.4-0.8,2.5c-0.3,3,1.5,6.3,2.5,6.2
		C33,24.5,33.1,24.5,33.4,24.1L33.4,24.1L33.4,24.1z"/>
	<path class="st1" d="M32.2,24.6c-2.5,0-4.6-2.2-4.9-2.5c-2.1-2.2-2.3-4.7-2.3-5.4c0.7,0.1,1.9,0.3,3.1,1c3.4,1.8,5.7,5.9,4.9,6.8
		C33,24.5,32.9,24.6,32.2,24.6z"/>
	<path class="st1" d="M3.6,35.6c-0.1,0,0.2,0.8,0.6,1.4c0.7,1.2,1.6,1.9,2.1,2.2c0.2,0.1,0.6,0.2,1.1,0.3c0,0,1.2,0.3,2.6,0.3
		c1.4,0,5.4-0.7,10.6-2.4c0,0,12.3-5.2,19.9-19.3c0.4-0.7,1.1-2.2,1.3-4.2c0.1-1.1,0.2-2.5-0.6-3.8c-0.9-1.6-2.6-2.2-2.6-2.2
		c0,0,0.9,0.4,1.6,1.5c0,0,0.6,0.8,0.9,1.9c1.1,4.4-3.7,10.9-3.7,10.9c-3.3,4.6-9.2,12.6-19.9,16C15.7,38.8,8,41.1,5.3,38
		C4.6,37.2,3.8,35.5,3.6,35.6z"/>
	<path class="st1" d="M3.7,38.3C4,38.7,4.4,39.2,5,39.7c1,0.9,2,1.4,2.7,1.8c0.2,0.1,0.6,0.2,1.1,0.3c0,0,1.2,0.3,2.6,0.3
		c1.4,0,5.4-0.7,10.6-2.4c0.8-0.3,1.8-0.8,2.9-1.4c0,0,11.5-6.2,17-17.9c0.6-1.2,0.9-2.3,1.1-2.8c0.6-2.1,1-3.5,0.6-5.2
		C43.1,11,42.2,10,42,9.8c-0.4-0.5-0.8-0.8-1.1-1c0.5,0.4,1.2,1,1.7,2.1c0.2,0.6,0.4,1.1,0.4,1.7c0.3,2.6-0.7,5.3-0.9,5.8
		c-1.3,3.5-2.9,5.9-3.1,6.2c-1.6,2.5-4.4,6.6-9.5,10.4c-4,2.9-7.8,4.5-10.7,5.4l0,0c-3,0.9-9.1,2.9-13.3-0.2
		C4.7,39.6,4.1,38.8,3.7,38.3z"/>
</g>
<path class="st1" d="M8.1,5.9c0,0,0.5,1,1.3,1.9c0.4,0.5,0.9,1.1,1,1c0,0-0.7-1.1-1.4-1.9C8.6,6.5,8.1,5.8,8.1,5.9z"/>
<path class="st2" d="M38.3,31.7c0.1,1.2,0.2,1.7,0.2,2c0.2,1.3,0.3,2.4,0.7,3.8c0.4,1.4,0.7,1.7,0.5,2c-0.5,0.9-2.5,0.6-3.4,0.5
	c-0.5-0.1-2-0.3-3.7-1.1c-1.2-0.6-1.7-1-3-1.3c-0.9-0.2-1.8-0.3-1.8-0.1c0,0.1,1.1,0.4,2.8,1.1c3.4,1.3,3.3,1.9,4.8,1.9
	c2,0.1,2.9,0.1,3.3,0.1c0.1,0,0.6-0.1,0.9,0.1c0.3,0.2,0.3,0.5,0.5,0.8c0.5,0.7,1.4,0.3,1.9,0.8c0.1,0.1,0.2,0.3,0.1,1.6
	c-0.1,1.7-0.4,2.1-0.2,3c0.1,0.4,0.2,1.2,0.7,1.4c0.6,0.2,1.6-0.5,2-1.3c0.9-1.6,0.4-4.2-1-5c-0.5-0.3-1.1-0.3-1.5-0.9
	c-0.3-0.5-0.2-0.8-0.5-1.3c-0.4-0.5-0.9-0.4-1.5-0.7c-0.4-0.3-0.8-0.8-1.3-5.5c-0.1-0.7-0.1-1.5-0.4-2.6c-0.2-0.9-0.4-2.1-0.5-2
	C38,28.9,38.1,29.8,38.3,31.7z M42,41.3c0.3-0.2,2.5,0.9,2.8,2.9c0.2,1.2-0.5,2.2-0.7,2.4c-0.4,0.6-1.3,1.4-1.7,1.2
	c-0.3-0.1-0.2-0.9-0.1-2.4c0.1-1.5,0.3-1.8,0.1-2.6C42.3,41.8,41.8,41.4,42,41.3z"/>
</svg>
