<?xml version="1.0" encoding="UTF-8"?><svg id="Layer_2" xmlns="http://www.w3.org/2000/svg" viewBox="0 0 349.75 391.87"><defs><style>.cls-1{fill:#b17440;}.cls-2{fill:#a23c2e;stroke:#b17440;stroke-miterlimit:10;stroke-width:3px;}</style></defs><path class="cls-2" d="m239.19,1.87C166.86,30.87,94.53,59.87,22.19,88.87c-5.67,3.73-13.81,10.39-18,21-8.68,22,5.68,45.69,14,59,41.35,66.12,125.59,93.77,158,104,57.61,18.17,91.19,15.45,114,10,15.83-3.78,41.82-10.82,53-32,12.75-24.15-.84-53.86-16-85-20.76-42.64-49.63-98.55-88-164Z"/><path class="cls-1" d="m213.19,13.87c-.34.23,1.74,4.35,12,21,23.18-6.71,28.1-8.59,28-9-.12-.45-6.41.46-11.5,1.5-9.22,1.88-11.7,3.59-15,2-1.63-.78-1.63-1.49-6-7-.9-1.13-7-8.83-7.5-8.5Z"/><g><path class="cls-1" d="m43.69,91.37c-.32-.03-2.62,7.36-1,16,1.31,7.02,4.69,12.13,5,12,.32-.13-2.9-6-4-15-.95-7.74.26-12.97,0-13Z"/><path class="cls-1" d="m51.69,82.37c-.32-.03-2.62,7.36-1,16,1.31,7.02,4.69,12.13,5,12,.32-.13-2.9-6-4-15-.95-7.74.26-12.97,0-13Z"/><path class="cls-1" d="m61.69,76.37c-.32-.03-2.62,7.36-1,16,1.31,7.02,4.69,12.13,5,12,.32-.13-2.9-6-4-15-.95-7.74.26-12.97,0-13Z"/><path class="cls-1" d="m131.08,50.37c-.19-.03-1.59,5.78-.61,12.57.79,5.51,2.84,9.53,3.03,9.43.19-.1-1.76-4.71-2.42-11.78-.57-6.08.16-10.19,0-10.21h0Z"/><path class="cls-1" d="m105.08,63.37c-.19-.03-1.59,5.78-.61,12.57.79,5.51,2.84,9.53,3.03,9.43s-1.76-4.71-2.42-11.78c-.57-6.08.16-10.19,0-10.21h0Z"/><path class="cls-1" d="m85.5,69.37c-.28-.03-2.29,5.78-.87,12.57,1.15,5.51,4.1,9.53,4.37,9.43.28-.1-2.53-4.71-3.49-11.78-.83-6.08.23-10.19,0-10.21h-.01Z"/><path class="cls-1" d="m262.7,99.98c.12.25,6.13-1.03,11.21-5.75,4.13-3.83,6.04-8.43,5.81-8.61-.23-.19-2.72,4.6-8.28,9.08-4.78,3.85-8.84,5.07-8.74,5.28Z"/><path class="cls-1" d="m265.7,105.98c.12.25,6.13-1.03,11.21-5.75,4.13-3.83,6.04-8.43,5.81-8.61-.23-.19-2.72,4.6-8.28,9.08-4.78,3.85-8.84,5.07-8.74,5.28Z"/><path class="cls-1" d="m268.7,111.98c.12.25,6.13-1.03,11.21-5.75,4.13-3.83,6.04-8.43,5.81-8.61-.23-.19-2.72,4.6-8.28,9.08-4.78,3.85-8.84,5.07-8.74,5.28Z"/><path class="cls-1" d="m271.7,121.98c.12.25,6.13-1.03,11.21-5.75,4.13-3.83,6.04-8.43,5.81-8.61-.23-.19-2.72,4.6-8.28,9.08-4.78,3.85-8.84,5.07-8.74,5.28Z"/><path class="cls-1" d="m274.7,127.98c.12.25,6.13-1.03,11.21-5.75,4.13-3.83,6.04-8.43,5.81-8.61-.23-.19-2.72,4.6-8.28,9.08-4.78,3.85-8.84,5.07-8.74,5.28Z"/><path class="cls-1" d="m293.11,159.53c.17.22,5.82-2.17,9.93-7.76,3.33-4.54,4.33-9.42,4.08-9.55-.27-.14-1.81,5.03-6.42,10.48-3.97,4.68-7.73,6.65-7.59,6.83h0Z"/><path class="cls-1" d="m288.11,157.53c.17.22,5.82-2.17,9.93-7.76,3.33-4.54,4.33-9.42,4.08-9.55-.27-.14-1.81,5.03-6.42,10.48-3.97,4.68-7.73,6.65-7.59,6.83h0Z"/><path class="cls-1" d="m236.01,122.89c0,.28,8.32,1.26,17.6-1.31,7.53-2.09,12.75-5.72,12.58-5.97-.18-.26-6.24,3.33-15.96,5.51-8.36,1.88-14.21,1.54-14.21,1.77h0Z"/><path class="cls-1" d="m237.01,137.89c0,.28,8.32,1.26,17.6-1.31,7.53-2.09,12.75-5.72,12.58-5.97-.18-.26-6.24,3.33-15.96,5.51-8.36,1.88-14.21,1.54-14.21,1.77h0Z"/><path class="cls-1" d="m247.01,158.89c0,.28,8.32,1.26,17.6-1.31,7.53-2.09,12.75-5.72,12.58-5.97-.18-.26-6.24,3.33-15.96,5.51-8.36,1.88-14.21,1.54-14.21,1.77h0Z"/><path class="cls-1" d="m251.63,214.19c-.03.28,13.78.58,29.46-2.79,12.73-2.74,21.73-6.84,21.47-7.08-.28-.25-10.68,3.88-27.08,6.9-14.1,2.59-23.82,2.74-23.85,2.97Z"/><path class="cls-1" d="m258.63,220.19c-.03.28,13.78.58,29.46-2.79,12.73-2.74,21.73-6.84,21.47-7.08-.28-.25-10.68,3.88-27.08,6.9-14.1,2.59-23.82,2.74-23.85,2.97Z"/><path class="cls-1" d="m236.66,131.29c0,.28,8.08,1.57,17.21-.67,7.41-1.82,12.61-5.25,12.46-5.51-.17-.27-6.19,3.1-15.75,4.93-8.21,1.57-13.91,1.02-13.92,1.25h0Z"/><path class="cls-1" d="m63.69,154.37c-9.46-11.24-6.47-27.61-6-30,3.2-16.27,15.42-25.49,19-28,2.26,3.37,5.59,9.2,7,17,3.83,21.13-8.53,44.65-16,44-.53-.05-1.7-.27-4-3Z"/><path class="cls-1" d="m69.91,159.9c11.19,10.27,28.66,8.5,31.22,8.21,17.38-1.99,27.97-13.5,30.86-16.88-3.4-2.51-9.31-6.25-17.44-8.24-22.01-5.39-47.68,5.2-47.53,12.7.01.53.17,1.72,2.88,4.21h.01Z"/><path class="cls-1" d="m67.06,150.83c2.63-18.53,20.45-31.98,23.08-33.91,17.91-13.18,36.76-12.24,42.1-11.78-1.27,5.09-3.95,13.43-10.07,22.12-16.58,23.57-48.94,36.37-54.58,29.71-.4-.47-1.17-1.64-.53-6.14Z"/><path class="cls-1" d="m210.86,233.74c-14.38-3-22.14-17.72-23.25-19.89-7.53-14.78-3.61-29.58-2.35-33.76,3.86,1.25,10.08,3.79,16,9.05,16.06,14.25,20.86,40.38,14.59,44.49-.44.29-1.51.84-5,.11h.01Z"/><path class="cls-1" d="m336.52,203.7c-13.43,1.73-26.01-8.23-27.84-9.71-12.41-10.07-15.11-23.53-15.73-27.38,3.79-.09,10.1.19,17.27,2.82,19.44,7.13,34.16,27.45,30.5,32.7-.26.37-.94,1.14-4.2,1.56h0Z"/><path class="cls-1" d="m219.16,234.25c15.14,1.16,27.8-11.01,29.62-12.82,12.44-12.3,13.66-27.89,13.85-32.33-4.22.13-11.19.83-18.81,4.29-20.64,9.35-34.3,33.54-29.54,39.34.34.41,1.19,1.25,4.87,1.53h.01Z"/><path class="cls-1" d="m211.32,228.88c-9.38-16.2-3.66-37.78-2.79-40.93,5.95-21.43,21.36-32.33,25.84-35.26,2.15,4.79,5.18,13,5.74,23.62,1.51,28.78-16.03,58.83-24.58,57.07-.6-.12-1.93-.57-4.21-4.5Z"/><path class="cls-1" d="m33.19,88.87c-.61-.36-4.38,4.39-7,9-4.93,8.69-5.86,17.08-6,22,.36,1.82.97,4.64,2,8,0,0,2.7,8.84,8,18,5.13,8.86,24.66,31.58,55,58,0,0,79.83,58.55,198,53,5.75-.27,18.16-1.41,31.71-7.86,7.23-3.44,16.72-8.12,22.29-18.14,6.63-11.93,4.11-24.99,4-25-.09,0,.6,7.45-3,16,0,0-2.97,7.06-9,13-23.64,23.29-83,18-83,18-41.95-3.74-114.75-10.23-177-66-10.42-9.34-54.51-48.84-45-78,2.39-7.33,9.94-19.44,9-20Z"/><path class="cls-1" d="m16.19,99.87c-1.5,3.63-2.95,7.98-4,13-2,9.61-1.73,17.97-1,24,.36,1.82.97,4.64,2,8,0,0,2.7,8.84,8,18,5.13,8.86,24.66,31.58,55,58,5.03,3.57,11.79,8.12,20,13,0,0,82.8,49.19,178,40,10-.96,18.12-3.01,22-4,15.69-4.01,26.2-6.7,35-16,7.48-7.91,10.42-17.1,11-19,1.33-4.36,1.82-8.19,2-11-.45,4.29-1.86,11.75-7,19-2.58,3.64-5.53,6.43-9,9-15.31,11.37-36.39,15.35-40,16-27.03,4.89-48.49,4.11-51,4-21.95-.93-58.48-2.81-102-21-33.56-14.03-58.4-32.37-75-47h0c-17.16-15.16-52.64-46.5-49-85,.76-8.1,3.08-14.63,5-19Z"/></g><path class="cls-1" d="m238.69,4.37c-.38-.16-4.07,7.04-7,15-1.56,4.25-3.34,9.87-3,10,.43.16,4.2-8.55,7-16,1.15-3.06,3.33-8.86,3-9Z"/><path class="cls-1" d="m189.19,293.87c-6.89,5.11-10.33,7.66-12,9-7.77,6.22-14.11,11.29-21,19-7.13,7.98-7.78,10.86-11,11-7.21.31-13.32-13.8-16-20-1.39-3.22-5.58-13.5-7-28-.97-9.84.02-14.71-3-24-2.01-6.19-5.13-12.28-6-12-.97.32,1.6,8.45,4,22,4.66,26.29.76,28.18,6,38,6.83,12.81,10.25,19.21,12,21,.74.76,3.06,3.02,3,6-.05,2.67-1.95,3.36-3,6-2.28,5.71,3.62,9.92,2,15-.27.85-1,2.52-10,7-11.22,5.59-14.82,5.35-20,10-2.39,2.15-6.73,6.05-6,10,.91,4.95,9.41,8.03,16,8,13.6-.07,28.09-13.46,28-25-.04-4.52-2.3-8.16,0-13,1.82-3.83,4.5-4.2,6-8,1.87-4.74-.95-7.56-1-12-.04-3.69,1.85-7.94,30-29,4.1-3.07,8.82-6.54,15-12,5.12-4.52,11.39-10.54,11-11-.31-.37-5.88,3.75-17,12Zm-47,60c2.52.84,4.02,19.52-8,29-7.28,5.74-15.79,5.15-18,5-5.5-.38-13.75-2.65-14-6-.18-2.46,4.87-5.01,15-10,9.9-4.88,12.56-5.13,17-9,5.82-5.07,6.72-9.42,8-9Z"/></svg>